
<svg width="221px" height="234px" viewBox="0 0 221 234" version="1.1" xmlns="http://www.w3.org/2000/svg" xmlns:xlink="http://www.w3.org/1999/xlink">
    <g id="Page-1" stroke="none" stroke-width="1" fill="none" fill-rule="evenodd">
        <g id="Home1" transform="translate(-70.000000, -48.000000)">
            <g id="Group-91" transform="translate(70.000000, 48.000000)">
                <g id="Group-90">
                    <path d="M220.815941,110.164948 C220.815941,170.906041 171.426205,220.146021 110.500108,220.146021 C49.5740102,220.146021 0.184005353,170.906041 0.184005353,110.164948 C0.184005353,49.4241237 49.5740102,0.183876289 110.500108,0.183876289 C171.426205,0.183876289 220.815941,49.4241237 220.815941,110.164948" id="Fill-2" fill="#FFFFFF"></path>
                    <g id="Group-4" transform="translate(46.000000, 7.000000)">
                        <path d="M37.5282405,186.035767 C38.7378257,189.316056 39.990159,192.245746 41.3027162,194.86853 C42.1488074,196.557726 42.9779607,198.189829 43.7968974,199.743664 C40.6507393,195.682035 38.5071468,190.916798 37.5282405,186.035767 M131.352688,25.4375196 C127.494329,22.9058701 121.133723,19.5100557 112.168705,17.1555814 C112.256352,16.7302 112.254202,16.2761381 112.105524,15.8121588 C112.000132,15.4827361 111.676967,14.4786536 104.067792,7.52834433 C97.4789266,1.51001443 95.9278938,0.958921649 95.4178731,0.777993814 C94.5446274,0.468138144 92.9970897,0.346179381 90.8169327,0.416138144 C88.2453208,0.498962887 82.7689838,0.931045361 74.8076067,2.88855052 C72.9277624,2.75962268 71.0215702,2.72504536 69.1363488,2.78562268 C57.8107709,3.14935464 47.3839802,6.76630309 38.9227989,13.2563856 C33.8688354,12.3043031 28.541176,11.9105505 23.0718293,12.0861175 C18.3017782,12.2391691 13.515058,12.8441381 9.59539988,13.7895196 C3.41869185,15.2787567 2.90678917,16.6806124 2.68767117,17.2796845 C2.38198139,18.1173134 1.91981715,19.3832722 7.06384757,26.3057052 C9.76424173,29.9406124 13.1983451,34.0043856 16.6198123,37.6240144 C16.5076991,37.7982412 16.4001566,37.9660351 16.2971845,38.1271278 C16.0605909,38.4962206 15.8490009,38.8280557 15.6505848,39.1212928 C15.3844169,39.5163856 15.1980994,40.0361175 15.0803403,40.7504474 C11.5999936,39.8975402 6.73369185,38.8677258 3.84886217,38.9602 C1.76683783,39.0272103 0.522839051,39.7302825 0.151548297,41.0501175 C-0.772242457,44.3279938 4.9406882,49.2202825 8.61407384,51.7460351 C2.94389136,58.9903856 3.71712251,60.9990866 4.06045219,61.8900557 C4.30833783,62.5349629 5.1678719,64.0258082 7.782232,63.9419113 C10.4777867,63.855334 14.2509181,62.1634577 17.0456809,60.4010866 C17.1303707,60.8052928 17.217749,61.2081588 17.3062028,61.6075402 C14.9784437,68.6047567 13.5443634,80.8140351 16.9690568,93.0302825 C20.6276554,106.099437 23.3858536,110.148736 25.6023062,113.401953 C26.5666943,114.818551 27.3283646,115.937087 28.0117977,117.626282 C28.827777,119.642757 28.7167393,124.319808 28.5882259,129.735045 C28.4196529,136.867623 28.2102137,145.70119 29.5958999,155.550365 C24.6973354,162.109334 14.9432235,178.098262 18.7865264,197.301004 C20.4445641,205.583746 23.9749181,212.584447 29.281069,218.108509 C34.6270106,223.674118 41.6331408,227.156509 47.1301797,226.97987 C49.6020459,226.90053 51.5633536,226.073623 52.8027819,224.58921 C55.2109291,221.70321 55.2716906,217.814736 52.9533415,212.828633 C55.0385921,214.546777 57.2639169,215.410406 59.7072843,215.142097 C66.3679339,214.413829 67.8928877,202.739025 69.2382454,192.438736 C69.5135544,190.33488 69.8265033,187.935911 70.164187,186.111087 C70.5056347,187.707004 70.8417052,189.723746 71.1390605,191.503808 C72.660788,200.619891 74.5543439,211.965272 80.9528585,213.726839 C81.5607429,213.894365 82.1887916,213.968344 82.821142,213.948241 L82.8216797,213.948241 C90.5816833,213.698963 97.6399717,199.074901 101.325187,186.62787 C103.965895,177.70719 105.657809,168.859953 106.836475,162.149004 C109.250806,148.392324 110.042857,138.237581 110.679241,130.07787 C111.13549,124.220901 111.496833,119.593973 112.316039,115.692097 C112.891929,112.955664 114.262559,110.593416 115.849619,107.85752 C119.52408,101.523437 124.096522,93.6400763 123.408518,75.4127361 C123.31388,72.8845711 123.056047,70.3623031 122.639857,67.9089216 C122.73799,67.5687773 122.82268,67.2380144 122.893927,66.9217258 C124.212399,61.0701175 123.145307,57.147066 121.377845,50.6478701 C120.817279,48.5871691 120.195146,46.2991691 119.536716,43.5656845 C125.438922,42.1391691 130.045777,40.0688186 132.380258,38.895334 C138.996546,35.5692103 139.068868,34.0628186 139.099249,33.4197876 C139.227494,30.7433959 132.668741,26.3006124 131.352688,25.4375196" id="Fill-4" fill="#002E70"></path>
                        <path d="M35.7150189,9.55913196 C36.1282512,9.66125567 36.5597658,9.70360619 37.0329532,9.68832784 C37.8185517,9.66313196 38.591514,9.48032784 39.3378595,9.30315258 C40.0417257,9.13616289 40.7689824,8.96381237 41.4521466,8.94183299 C41.9164617,8.92709072 42.3302318,8.98230722 42.7179227,9.11043093 C43.4317366,9.3468433 44.217604,9.12061649 44.6940176,8.54030722 C45.1701624,7.96080206 45.2389897,7.14756495 44.8655481,6.49702887 C44.783278,6.35309072 42.7932026,2.96049278 38.6334556,2.4828433 C38.2774897,2.44210103 37.9277074,2.42682268 37.5937877,2.43754433 C34.8611308,2.52546186 33.4283948,4.33205979 33.2544446,5.97381237 C33.0764617,7.65496701 34.1112901,9.16323505 35.7150189,9.55913196" id="Fill-6" fill="#002E70"></path>
                        <path d="M51.0600544,223.141922 C50.7871651,223.4692 50.4516322,223.747695 50.0526493,223.973922 C49.8601481,224.088643 49.6533974,224.189427 49.4302466,224.276272 C48.7567612,224.540293 47.9596018,224.69254 47.056513,224.721489 C43.3511335,224.840499 36.8950836,222.768004 30.919749,216.543819 C25.9168682,211.337922 22.5814352,204.714087 21.0097004,196.857798 C17.3914303,178.771447 26.7043488,163.360953 31.219524,157.187159 C31.4789704,158.806932 31.7830471,160.451097 32.1411639,162.111612 C32.260805,162.676107 32.3885118,163.243551 32.52294,163.814478 C33.2918695,167.064746 34.1764072,170.633447 35.2026322,174.298911 C33.3047746,183.754066 36.2049291,194.426664 43.0777064,202.445654 C51.6889096,212.489963 54.2997746,219.263633 51.0600544,223.141922" id="Fill-8" fill="#B6D7F2"></path>
                        <path d="M11.2078664,50.7455979 C11.5267302,50.3655155 11.8337642,50.0058041 12.1270866,49.6683402 C12.7121182,47.1077423 14.0112326,44.6862577 15.4689723,43.1787938 C12.3685197,42.3950412 6.84459513,41.125866 3.92185669,41.2196804 C2.83191265,41.2547938 2.38587981,41.4794124 2.33372165,41.6608763 C2.29204891,41.8109794 2.25709757,42.2653093 2.84885061,43.2364227 C4.24125815,45.5204021 7.82968516,48.7323402 11.2078664,50.7455979" id="Fill-10" fill="#FFA1C3"></path>
                        <path d="M11.8561331,51.3480474 C9.08395426,54.7074082 5.56596764,59.4940887 6.17707835,61.0803567 C6.34081192,61.5068103 6.85674745,61.7097175 7.7095601,61.6821093 C9.7047438,61.6180474 12.9662414,60.2676557 15.6505041,58.6071402 C12.8804762,57.4559031 11.5254397,54.8505423 11.8561331,51.3480474" id="Fill-12" fill="#FFA1C3"></path>
                        <path d="M20.0662293,35.0651856 C13.6018449,29.0613299 8.84389234,22.698567 8.23547019,20.6539485 C8.18707603,20.4904433 8.03866727,19.9937629 8.30671715,19.6493299 C8.55621594,19.3274124 9.09957482,19.1636392 10.0139556,19.1341546 C13.3988583,19.0255979 21.0537391,20.6485876 29.6063315,25.2366495 C31.9324775,21.6427526 34.8721539,18.3353918 38.3530383,15.4472474 C32.6567768,14.3892887 27.3342257,14.209433 23.1489373,14.3437216 C11.9878996,14.7020928 5.15787044,17.2404433 4.8185736,18.0534124 C4.58977676,18.805268 7.46223905,23.6168763 13.4550493,30.6896804 C15.2725189,32.8350825 17.0929459,34.8550412 18.8665918,36.7034536 C19.2220201,36.192567 19.6183145,35.6460309 20.0662293,35.0651856" id="Fill-14" fill="#B6D7F2"></path>
                        <path d="M28.9757556,26.2401155 C29.0160841,26.1733732 29.0582945,26.107167 29.0991607,26.0406928 C20.4836558,21.4628165 12.8828152,19.9467753 10.0434223,20.0379093 C9.41080304,20.0582804 9.14759258,20.1475381 9.0548371,20.1912289 C9.0795719,21.0961361 12.0878067,25.7605897 17.8902665,31.6558887 C18.6656485,32.4436619 19.5950853,33.3560742 20.6455074,34.3312082 C22.4753444,32.0667959 25.0762617,29.3394763 28.9757556,26.2401155" id="Fill-16" fill="#5A83AB"></path>
                        <path d="M124.24942,24.0032577 C120.546998,22.1870103 115.570196,20.2254845 109.328425,18.7890515 C109.081077,18.8102268 108.277465,18.8836701 107.014109,19.0369897 C109.861567,22.0835464 112.192553,25.4707835 113.932323,29.088268 C117.675611,29.4289485 120.755093,29.9065979 122.775011,30.2705979 C123.728645,30.4418763 132.105406,31.9855258 132.400072,33.2898144 C132.443627,33.4763711 132.390125,33.6661443 132.243867,33.8545773 C131.352876,35.0050103 125.048999,37.9628454 117.249743,39.6461443 C117.398958,40.3409072 117.54656,41.0126186 117.693356,41.6610103 C128.430407,39.3151134 136.357639,34.2542268 136.830558,33.2922268 C136.651499,32.467732 132.508153,28.0549691 124.24942,24.0032577" id="Fill-18" fill="#B6D7F2"></path>
                        <path d="M114.375237,30.0441299 C115.482119,32.5200268 116.315574,35.0967072 116.851943,37.7403979 C116.921308,38.0824186 116.990941,38.4182742 117.059231,38.7498412 C124.399012,37.1442742 130.27702,34.4054289 131.375299,33.4605835 C130.055214,32.696934 123.27089,30.9056144 114.375237,30.0441299" id="Fill-20" fill="#5A83AB"></path>
                        <path d="M31.2282349,24.5185402 C35.4199758,21.4320454 40.8852897,18.0212206 48.087685,14.3654062 C57.0860415,9.79825155 65.2205622,6.88866392 71.9503079,5.03113814 C71.0410354,5.01291134 70.1279989,5.01559175 69.2095853,5.04507629 C53.3422155,5.55462268 39.2148845,13.226499 31.2282349,24.5185402" id="Fill-22" fill="#B6D7F2"></path>
                        <path d="M98.3194526,27.4323093 C98.3361217,27.2797938 98.4337165,27.1425567 98.573253,27.0768866 C98.7160158,27.0106804 98.8800182,27.0200619 99.0128333,27.1026186 C99.1316679,27.1747216 101.911375,28.9526392 103.112356,32.0876495 C103.485798,33.0601031 103.431758,33.9808247 102.960184,34.6871134 C102.562545,35.282701 101.906804,35.6475052 101.195141,35.6702887 C100.690766,35.6863711 100.218117,35.5314433 99.8204781,35.2331134 C99.425528,34.938 99.1031691,34.4997526 98.9007202,33.9524124 C97.9027251,31.2671753 98.3027835,27.5885773 98.3194526,27.4323093 M119.189703,51.2391959 C118.267526,47.8530309 117.122735,43.6337938 115.962082,37.9210309 C115.529223,35.7817938 114.899561,33.7103711 114.091916,31.7134639 C112.220944,27.0691134 109.390961,22.8394227 105.832108,19.1862887 C97.8088942,20.2509485 77.7145633,23.7732784 60.1948017,33.9073814 C47.7523942,41.1029485 37.3110852,51.3716082 30.4654623,59.118268 C31.6207384,62.0664536 32.4851119,66.0267629 33.4521886,70.4649897 C33.6613589,71.4243093 33.8740243,72.4015876 34.0947555,73.3898557 C34.901056,76.9971546 36.3501922,80.5151959 37.8326667,83.4708866 C39.9827117,87.7587423 42.1913674,90.8760619 42.5908881,91.4276907 C45.4101168,92.8461649 48.4309878,94.0268866 51.5747263,94.9387629 C55.3863041,96.0540825 59.4315182,96.7890515 63.668427,97.1452784 C63.8937287,97.1632371 64.123601,97.1811959 64.352129,97.1991546 C64.6758321,97.2251546 65.0003418,97.2474021 65.3232384,97.2656289 C65.3748589,97.2680412 65.4256727,97.2734021 65.4762178,97.2752784 C65.8362165,97.2964536 66.1962153,97.3138763 66.5597092,97.3275464 C66.6981703,97.3337113 66.8358248,97.3404124 66.9780499,97.3465773 C67.2759428,97.3554227 67.5738358,97.3634639 67.8757616,97.3717732 C68.0970304,97.3792784 68.3182993,97.3830309 68.5438698,97.3867835 C68.7791192,97.390268 69.015444,97.3932165 69.2515,97.3932165 C69.5786983,97.3969691 69.90509,97.3937526 70.2352457,97.390268 C70.3833856,97.3891959 70.532601,97.3916082 70.6850426,97.3905361 C71.1821582,97.3816907 71.6865328,97.3728454 72.190101,97.3567629 C72.6979708,97.3404124 73.1983127,97.3170928 73.6948905,97.2937732 C73.8328139,97.2854639 73.9704684,97.2776907 74.1043589,97.2696495 C74.4519903,97.2476701 74.7963954,97.2294433 75.1364988,97.2039794 C75.3354526,97.1903093 75.5346752,97.1731546 75.729865,97.1597526 C76.00141,97.136433 76.272955,97.116866 76.540736,97.0938144 C76.7727591,97.0718351 77.0012871,97.0503918 77.2322348,97.0281443 C77.4602251,97.006433 77.6876776,96.9809691 77.9127105,96.9555052 C78.1689307,96.9292371 78.4227311,96.8997526 78.6754562,96.869732 C78.8596229,96.8493608 79.0443273,96.8252371 79.2290316,96.8013814 C79.5145572,96.7665361 79.8035779,96.7284742 80.0891034,96.6904124 C80.1974526,96.6724536 80.3058017,96.6582474 80.4144197,96.6402887 C81.191146,96.5282474 81.9563114,96.4062887 82.7142178,96.2695876 C88.744399,95.1786598 94.335,93.2945979 99.3236314,90.662701 C102.225937,84.1935258 103.386321,75.8258144 104.327319,68.2142474 L104.32705,68.2107629 C104.386467,67.7057732 104.449917,67.2005155 104.510141,66.7030309 C104.659625,65.4786186 104.806421,64.2906598 104.954023,63.1461237 C105.317786,60.3552784 105.697411,57.8354227 106.19614,55.7492577 C106.804024,53.2074227 107.592043,51.3150515 108.741673,50.3806598 C109.20088,50.0037938 109.72031,49.7810515 110.309912,49.7295876 C110.371749,49.7277113 110.433318,49.7218144 110.495155,49.7199381 C114.494932,49.5915464 118.781579,56.3405567 120.829727,65.7051134 C121.782017,60.7964742 120.841826,57.3164948 119.189703,51.2391959" id="Fill-24" fill="#B6D7F2"></path>
                        <path d="M109.176387,17.8955093 C106.882504,18.0997567 81.3701775,20.6161278 59.73745,33.1221278 C56.3885741,35.0608701 53.1838052,37.2191381 50.1545996,39.4913237 C41.999377,45.6010557 35.109124,52.5350144 30.0764001,58.193633 C29.0318928,55.8640866 27.737349,54.3207052 25.9521422,53.903901 C24.7447079,53.6205814 23.5007091,54.0802722 22.328495,55.2143546 C22.5005631,54.6986433 22.6452079,54.1403134 22.7503308,53.5361485 C23.0471483,51.8474887 23.0441909,49.9658392 22.7734524,48.2013237 C31.6922274,39.1037361 41.1245181,31.530499 50.9299816,25.5523753 C67.3482383,15.5480041 84.8139597,10.0255505 102.667372,9.32194227 C106.221117,12.5735505 109.614354,15.9492619 109.952844,16.5209938 C110.028393,16.8480041 109.584511,17.4846021 109.176387,17.8955093" id="Fill-26" fill="#FFA1C3"></path>
                        <path d="M101.720594,8.46209278 C88.2871818,9.11075258 75.0564871,12.4811031 62.2021915,18.5136392 C62.2021915,18.5136392 62.1917061,18.5214124 62.1669713,18.5332062 C56.7032706,21.0970206 51.3062462,24.1470619 45.9904165,27.6723402 C35.3114384,34.749701 27.3874324,42.1621134 22.5593083,47.0828144 C21.9836866,44.5466082 20.8195382,42.4234536 19.1459068,41.7605876 C18.8705978,41.6539072 18.578082,41.6016392 18.2731988,41.6115567 C17.9296002,41.6225464 17.5696015,41.7171649 17.2079895,41.8809381 C17.2676757,41.1371237 17.3744117,40.6200722 17.5295418,40.3833918 C17.7376367,40.0762165 17.9624007,39.7288351 18.2078667,39.344732 C20.9093363,35.1145052 26.5348886,26.3211443 48.4977718,15.1722371 C54.8148229,11.9659278 60.7049299,9.58036082 65.9686015,7.80807216 C79.2794153,3.32401031 88.6184129,2.74959794 90.8889056,2.67642268 C93.5387547,2.59145361 94.4434567,2.83001031 94.656391,2.90613402 C95.7616599,3.30149485 98.7051002,5.74361856 101.720594,8.46209278" id="Fill-28" fill="#FFA1C3"></path>
                        <path d="M20.0630568,58.474567 C19.7482259,58.6777423 19.4100045,58.8281134 19.0540386,58.9334536 C19.1341578,59.3349794 19.2177721,59.7378454 19.3038062,60.1420515 C19.5463147,59.5520928 19.7995775,58.9940309 20.0630568,58.474567" id="Fill-30" fill="#B6D7F2"></path>
                        <path d="M36.2606092,7.36508041 C36.9101664,7.52563711 37.8315375,7.33666804 38.8131324,7.10400825 C39.5885144,6.92013196 40.4671372,6.71159588 41.3790983,6.68264742 C41.6546762,6.67380206 41.9213818,6.68103918 42.1810971,6.70516289 C41.4608307,5.93910103 40.1958611,4.93769897 38.3740898,4.7286268 C38.1275484,4.70048247 37.8901482,4.68976082 37.6667285,4.69699794 C36.188018,4.74444124 35.5801336,5.5424 35.5096932,6.21116289 C35.4596859,6.68103918 35.6723513,7.2200701 36.2606092,7.36508041" id="Fill-32" fill="#FFFFFF"></path>
                        <path d="M99.7517046,33.6401711 C100.021368,34.3660268 100.549939,34.7876557 101.167234,34.7678206 C101.582886,34.7544186 101.970308,34.5373052 102.203944,34.1872433 C102.507483,33.7318412 102.529261,33.1008722 102.264437,32.4095938 C101.507068,30.4341299 100.014377,29.0207485 99.1626401,28.3345629 C99.102954,29.5404804 99.0940818,31.8700268 99.7517046,33.6401711" id="Fill-34" fill="#FFFFFF"></path>
                        <path d="M21.8552808,53.3803361 C21.729456,54.0901093 21.4519961,55.2716351 20.8602431,56.2893876 C20.2727917,57.3033876 19.3710472,58.1536144 18.0071384,58.1975732 C17.8149061,58.2037381 17.6154146,58.1956969 17.4075886,58.1659443 C17.024737,58.1203773 16.6184949,58.0177175 16.1961214,57.8576969 C12.4816007,56.460666 12.5135946,52.7287278 12.8625703,50.6259443 C13.3091409,47.9444598 14.5950813,45.4749959 15.9546883,43.9838825 C16.7677102,43.0821918 17.6065423,42.537532 18.3023428,42.5152845 C18.4840898,42.5093876 18.6523939,42.5402124 18.8104815,42.6037381 C21.3694572,43.6145216 22.5666749,49.3262124 21.8552808,53.3803361" id="Fill-36" fill="#FFA1C3"></path>
                        <path d="M121.142596,75.4981876 C121.805058,93.0747237 117.414901,100.645012 113.887236,106.725528 C112.202043,109.631095 110.747261,112.138621 110.095822,115.228332 C109.246773,119.272538 108.882742,123.962992 108.41762,129.901713 C107.786883,138.013445 106.998865,148.109755 104.601203,161.760827 C103.436248,168.409054 101.759659,177.177219 99.1517515,185.989074 C98.9745751,186.58493 98.7909461,187.180786 98.6032843,187.776373 C94.8796225,199.486827 88.5493974,211.501775 82.7477442,211.687796 C82.3449972,211.70093 81.9449388,211.655899 81.5567101,211.548951 C76.5532916,210.171487 74.7172709,199.167858 73.3754084,191.130641 C72.2741724,184.543796 71.6783865,181.378229 70.0932089,181.429157 C70.0760021,181.429693 70.0606773,181.430229 70.042395,181.434518 C70.0211554,181.431301 69.995614,181.435858 69.9735678,181.440146 C68.7491955,181.624559 68.1555605,183.923012 67.5124558,188.297177 C67.3471091,189.438497 67.1779984,190.721878 66.9911432,192.146249 C65.8764644,200.678806 64.348822,212.36192 59.4620872,212.895322 C59.3134096,212.910868 59.1650009,212.92293 59.0200872,212.927487 C53.4184631,213.107342 48.7970897,204.773404 43.3333889,193.857425 C38.6808281,184.56926 35.5830641,172.813775 33.405058,163.605487 C30.3570325,150.719136 30.6455155,138.619755 30.8536103,129.786992 C30.9963731,123.86194 31.0955811,119.523693 30.2086237,117.029837 C30.1768987,116.944064 30.1454425,116.862043 30.1134485,116.779755 C29.6131067,115.547301 29.0778135,114.580208 28.4882113,113.654662 C28.1674656,113.14726 27.8319327,112.651652 27.4770422,112.130847 C25.3546894,109.0146 22.7104863,105.137115 19.1529777,92.4228474 C15.4115714,79.0813629 17.5384948,63.9121052 21.654687,57.5048474 C22.2351481,56.5996722 22.8338914,55.9075897 23.4315592,55.4395897 C24.0128269,54.9866 24.5994717,54.7434866 25.1691785,54.7249918 C25.3616797,54.7190948 25.5541809,54.7381258 25.7442624,54.7826206 C29.2891347,55.617033 30.805485,62.5847649 32.5659571,70.6562907 C32.7748585,71.6156103 32.9877928,72.5966412 33.208524,73.5883938 C35.3349096,83.1097546 41.6519607,91.6819814 41.9251189,92.049734 C41.9821164,92.1312186 43.5828877,94.3739196 44.6679923,95.8446619 C44.7628987,95.9717134 44.9067369,96.0360433 45.0511128,96.0312186 C45.1384911,96.0285381 45.2282892,95.9969093 45.3033001,95.9438371 C45.5054802,95.7961464 45.5460775,95.5125588 45.3987442,95.3109918 C44.8744741,94.5966619 44.2249169,93.7022082 43.6933877,92.9591979 C45.9805495,94.0184969 48.384395,94.9255485 50.8691663,95.6672186 C50.7234461,96.0987649 50.5637454,96.5600639 50.3943658,97.0468268 C47.0785592,106.6486 40.1818536,126.632146 42.0116906,142.712744 C44.1953427,161.876621 53.3394193,171.334992 69.1885069,170.826518 C69.7326724,170.809095 70.2902807,170.780146 70.8476201,170.740744 C76.352187,170.343239 81.4217442,167.614579 85.5075556,162.851487 C91.8676237,155.442023 95.0812648,144.041425 94.1123062,132.355095 C93.0129522,119.131548 88.5039607,108.763713 84.8848841,100.430043 C84.3710994,99.2522701 83.8850069,98.1315897 83.4292953,97.0500433 C86.3256858,96.5008268 89.1193731,95.7671979 91.7936882,94.8561258 C94.2311408,94.0324351 96.5701918,93.0562289 98.7957855,91.9387649 C97.9609863,93.8622289 96.9076067,95.7487031 96.6199303,96.1775691 C96.4817381,96.3885175 96.5419619,96.6686206 96.7500568,96.8031773 C96.8307137,96.8583938 96.9221249,96.8806412 97.0129984,96.8779608 C97.0638123,96.8760845 97.111131,96.8675072 97.1576432,96.8479402 C97.2431395,96.8197959 97.3219145,96.7594866 97.3775678,96.6780021 C97.7300386,96.1419196 99.2189656,93.4706206 100.095169,91.1627856 C103.291065,84.1157134 104.417036,74.9240433 105.410461,66.8152598 C106.455775,58.2668887 107.361014,50.8842289 110.386725,50.631734 C110.433506,50.6263732 110.477598,50.625033 110.524379,50.6236928 C113.82755,50.5175485 118.401604,56.9422289 120.333607,67.8777753 C120.773456,70.3641258 121.045001,72.9244557 121.142596,75.4981876" id="Fill-38" fill="#B6D7F2"></path>
                        <path d="M84.8167827,162.265414 C80.8922852,166.839002 76.0407706,169.455621 70.7822073,169.837847 C70.2353533,169.877249 69.6879616,169.905662 69.1591209,169.92228 C61.1453168,170.179868 54.9823204,167.920816 50.5961964,163.071414 C46.4937158,158.538837 43.9511404,151.733538 42.9120102,142.611559 C41.1071769,126.733064 47.9573703,106.881126 51.2538192,97.3415381 C51.4261562,96.840033 51.5882766,96.3677443 51.7417937,95.9252082 C58.0163655,97.7103629 64.9025856,98.4951876 72.219245,98.2603835 C73.3581209,98.2236619 74.4846294,98.1620124 75.599846,98.0757031 C77.9759993,97.8979918 80.289509,97.613868 82.516447,97.2241361 C82.9960869,98.3627753 83.5096027,99.544301 84.0508107,100.789889 C87.6464968,109.062713 92.1208058,119.355497 93.2077925,132.4276 C94.1584689,143.883146 91.0227961,155.035002 84.8167827,162.265414" id="Fill-40" fill="#D2F1FF"></path>
                        <path d="M114.091943,31.7133835 C113.04878,37.6526412 111.388054,44.1041258 108.7417,50.3805794 C107.980298,52.1890536 107.134476,53.985734 106.196167,55.7491773 C99.552724,68.2809093 88.3276984,79.2547856 69.3641777,82.8060639 C57.5482057,85.016332 47.0727519,85.0018577 37.8326936,83.4710742 C36.3502191,80.5151155 34.9010828,76.9970742 34.0947824,73.3897753 C33.8740512,72.4015072 33.6613858,71.4242289 33.4522155,70.4649093 C32.4851388,66.0266825 31.6207653,62.0666412 30.4654892,59.1181876 C37.311112,51.3715278 47.752421,41.102868 60.1948286,33.9075691 C77.7145901,23.7731979 97.808921,20.2511361 105.832135,19.1864763 C109.390988,22.8393423 112.220971,27.069033 114.091943,31.7133835" id="Fill-42" fill="#D2F1FF"></path>
                        <path d="M28.4882113,113.654689 C28.1674656,113.147287 27.8319327,112.651678 27.4770422,112.130874 C25.3546894,109.014359 22.7104863,105.137142 19.1529777,92.4228742 C15.4115714,79.0813897 17.5384948,63.912132 21.654687,57.5048742 C22.2351481,56.599699 22.8338914,55.9076165 23.4315592,55.4396165 C24.9893135,56.9130392 26.0063974,59.8550598 25.9999449,65.0336165 C25.9674133,86.5155134 28.4857916,85.707101 31.2259765,103.112091 C31.7464826,106.413555 30.3457405,110.247348 28.4882113,113.654689" id="Fill-44" fill="#D2F1FF"></path>
                        <path d="M112.128027,83.7487113 C108.352745,93.8466289 104.003454,97.5362165 97.1575625,96.8478866 C97.2433277,96.8197423 97.3221027,96.759433 97.377756,96.6779485 C97.7299579,96.141866 99.2188849,93.470567 100.095088,91.162732 C103.290985,84.1156598 104.416955,74.9239897 105.410649,66.8152062 C106.455694,58.2668351 107.361202,50.8844433 110.386644,50.6316804 C115.616977,52.6387732 116.100919,73.1270412 112.128027,83.7487113" id="Fill-46" fill="#D2F1FF"></path>
                        <path d="M50.0526493,223.973814 C49.8601481,224.088804 49.6533974,224.189588 49.4302466,224.276433 C48.7567612,224.540186 47.9596018,224.692701 47.056513,224.721381 C43.3511335,224.840392 36.8953524,222.768165 30.919749,216.543711 C25.9171371,211.337814 22.5814352,204.713979 21.0097004,196.857959 C17.3914303,178.77134 26.7043488,163.360845 31.219524,157.187052 C31.4789704,158.807093 31.7830471,160.451258 32.1411639,162.111505 C31.2130714,165.857918 29.20794,174.017361 27.7813877,180.182577 C25.8703561,188.447361 30.5573305,202.652474 36.4495884,208.976907 C40.4391493,213.252701 47.0005909,218.386763 50.0526493,223.973814" id="Fill-48" fill="#D2F1FF"></path>
                        <path d="M67.5125634,188.297097 C67.3472167,189.438685 67.178106,190.721798 66.9912507,192.146169 C65.8765719,200.678726 64.3486607,212.361839 59.4621948,212.895509 C59.3135172,212.910788 59.1648395,212.922849 59.0199259,212.927674 C53.4183018,213.10753 48.7971972,204.773592 43.3332276,193.857344 C38.6809356,184.569447 35.5829028,172.813695 33.4051656,163.605406 C30.35714,150.719324 30.645623,138.619674 30.853449,129.786911 C30.9964807,123.86186 31.0956887,119.523612 30.2087313,117.029757 C30.4778566,117.147695 30.735421,117.367489 30.9685196,117.718355 C33.2570257,121.144458 33.9694953,143.195406 38.0819235,158.139241 C42.1946206,173.086561 58.0520427,207.233674 63.1328918,199.554561 C67.6663493,192.699942 67.4483067,188.078643 67.3496364,187.162478 C67.3808237,187.364045 67.4378213,187.753241 67.5125634,188.297097" id="Fill-50" fill="#D2F1FF"></path>
                        <path d="M104.360603,174.78168 C104.183696,174.954835 104.143098,175.432485 104.202516,176.14333 C104.575688,175.043021 104.649624,174.500773 104.360603,174.78168" id="Fill-52" fill="#D2F1FF"></path>
                        <path d="M98.6032843,187.776454 C94.8796225,199.486639 88.5493974,211.501856 82.7477442,211.687876 C82.3449972,211.70101 81.9449388,211.655979 81.5567101,211.548763 C76.5532916,210.171567 74.7172709,199.167938 73.3754084,191.130722 C72.2741724,184.543608 71.6783865,181.378309 70.0932089,181.428969 C70.0760021,181.429505 70.0606773,181.430041 70.042395,181.434598 C70.2601687,181.300845 70.5459631,181.280742 70.9091882,181.399485 C74.4422308,182.544825 80.4385361,206.391918 89.3790884,199.316165 C92.8121164,196.600371 96.0222624,192.151155 98.6032843,187.776454" id="Fill-54" fill="#D2F1FF"></path>
                        <path d="M75.1424136,151.883025 C70.2806825,160.485272 60.5789976,163.083932 50.5960888,163.071334 C46.4936083,158.538757 43.9510328,151.733458 42.9119027,142.611478 C41.1070693,126.732984 47.9575316,106.881045 51.2537117,97.3414577 C51.4260487,96.8399526 51.588438,96.367932 51.7416861,95.9251278 C58.0165268,97.7105505 64.9024781,98.4951072 72.2191375,98.2603031 C73.3580134,98.2238495 74.4847908,98.1622 75.5997384,98.0756227 C79.1429976,110.869767 84.2967068,135.691994 75.1424136,151.883025" id="Fill-56" fill="#F0FBFF"></path>
                        <path d="M18.8597898,52.8866577 C18.7194467,55.0551113 18.1830781,56.7877299 17.4076961,58.1659979 C17.0248445,58.1201629 16.6186024,58.0177711 16.196229,57.8574825 C12.4814394,56.4604515 12.5137022,52.7287814 12.862409,50.6257299 C13.3089796,47.9445134 14.5951888,45.4750495 15.954527,43.9839361 C17.8246925,45.5814619 19.1566073,48.2921629 18.8597898,52.8866577" id="Fill-58" fill="#FFC7E0"></path>
                        <path d="M62.2021108,18.5136392 C62.2021108,18.5136392 62.1916254,18.5214124 62.1668906,18.5332062 C56.7031899,21.0970206 51.3064344,24.1470619 45.9903359,27.6723402 C35.3113578,34.749701 27.3876206,42.1621134 22.5592276,47.0828144 C21.983606,44.5466082 20.8194575,42.4234536 19.1458262,41.7605876 C18.8705172,41.6539072 18.5780013,41.6016392 18.2731181,41.6115567 C17.9295196,41.6225464 17.5695208,41.7171649 17.2079089,41.8809381 C17.267595,41.1371237 17.3745999,40.6200722 17.52973,40.3833918 C17.7375561,40.0762165 17.9623201,39.7288351 18.207786,39.344732 C20.9092556,35.1145052 26.5348079,26.3211443 48.4976911,15.1722371 C54.8147422,11.9659278 60.7051181,9.58036082 65.9687897,7.80807216 C62.582005,11.7276392 60.5085841,15.6514948 62.2021108,18.5136392" id="Fill-60" fill="#FFC7E0"></path>
                        <path d="M50.154519,39.4912701 C41.9992964,45.6010021 35.1090433,52.5352289 30.0763195,58.1935794 C29.032081,55.864033 27.7372684,54.3206515 25.9520616,53.9038474 C24.7446273,53.6205278 23.5006285,54.0802186 22.3284144,55.214301 C22.5007513,54.6985897 22.6453961,54.1402598 22.7502501,53.5360948 C23.0473365,51.8477031 23.0441102,49.9657856 22.7733718,48.2015381 C31.6921467,39.1036825 41.1244375,31.5304454 50.9301698,25.5525897 C48.9150908,27.8789196 44.8779423,33.8128165 50.154519,39.4912701" id="Fill-62" fill="#FFC7E0"></path>
                        <path d="M47.3903252,64.4178186 C47.907605,65.8735505 45.2322145,68.1465402 41.4157972,69.4947876 C37.5974979,70.8438392 34.0843507,70.7567258 33.5665332,69.3012619 C33.0492534,67.8452619 35.7243751,65.5725402 39.5418678,64.2237567 C43.3590916,62.8755093 46.8722388,62.9623546 47.3903252,64.4178186" id="Fill-64" fill="#EA475A"></path>
                        <path d="M104.953969,63.1461773 C104.806367,64.2907134 104.659572,65.4786722 104.510356,66.7030845 C104.449864,67.2005691 104.386682,67.7058268 104.326996,68.2108165 C103.264744,68.1435381 102.074786,67.9317856 100.846918,67.5878887 C96.9533392,66.4859711 94.1378745,64.3872082 94.5586348,62.9044041 C94.981546,61.4181155 98.4820569,61.1066515 102.379938,62.2045485 C103.306148,62.468033 104.180738,62.7872701 104.953969,63.1461773" id="Fill-66" fill="#EA475A"></path>
                        <path d="M19.4555219,59.0873361 C19.4350888,59.1312948 19.4151934,59.177666 19.3942226,59.2224289 C19.3883078,59.1881196 19.3813175,59.1543464 19.3737895,59.1203052 C19.4020195,59.1103876 19.4280985,59.0977897 19.4555219,59.0873361 M16.2916192,57.6026557 C12.7588455,56.2739753 12.7943345,52.6894598 13.1298674,50.6711093 C13.8127628,46.5652536 16.597309,42.8426969 18.312882,42.7874804 C18.4559136,42.7829237 18.5865779,42.8049031 18.7121338,42.8542227 C20.9363832,43.7344701 22.3607847,48.9248206 21.588629,53.3335629 C21.3517664,54.6871711 20.526646,57.8446969 17.9980511,57.9259134 L17.9969757,57.9259134 C17.479427,57.942532 16.9056873,57.8334392 16.2916192,57.6026557 M109.051664,17.6336866 C106.178395,17.8971711 80.9994513,20.5162021 59.6017044,32.8895216 C47.3746509,39.9604495 37.0650815,49.9683052 30.1479428,57.7069237 C29.0956387,55.5138103 27.7949112,54.0564701 26.0145438,53.6383258 C25.7231034,53.5699753 25.4262859,53.5402227 25.1310815,53.5498722 C24.3556995,53.5748 23.5854258,53.8696454 22.8406934,54.4172536 C22.9065633,54.1476041 22.9678625,53.8717897 23.0181387,53.5823052 C23.3098479,51.9145526 23.3130742,50.0578309 23.0547032,48.3024289 C46.8151606,24.0961608 74.2132457,10.7393979 102.587549,9.59915052 C105.976753,12.7116454 109.198729,15.9168825 109.689123,16.6191505 C109.68267,16.8027588 109.418116,17.246367 109.051664,17.6336866 M82.3507238,97.5268619 C82.8064355,98.607068 83.2922591,99.7239959 83.8020109,100.896676 C87.3896314,109.15047 91.8545304,119.423151 92.9364088,132.450759 C93.8819769,143.833666 90.7702324,154.913151 84.6112689,162.08781 C80.7338212,166.605645 75.9449501,169.191975 70.7640864,169.567501 C70.2204586,169.606903 69.6776375,169.635584 69.15041,169.652202 C53.8073102,170.14513 45.3144039,161.289584 43.1842543,142.579769 C41.3826472,126.762388 48.2226241,106.950924 51.5091253,97.430099 C51.6513504,97.0186557 51.7871229,96.6273155 51.914292,96.2574186 C58.1493418,97.9991505 64.9804465,98.7641402 72.2296229,98.5312124 C75.7266387,98.4191711 79.1276727,98.0814392 82.3507238,97.5268619 M117.118702,37.6866557 C116.608412,35.1697485 115.827922,32.7136866 114.803041,30.3460784 C122.824373,31.1477897 128.988176,32.6925113 130.862644,33.5097691 C129.232836,34.6116866 123.846297,36.9632124 117.271412,38.4269856 C117.220867,38.1819959 117.169247,37.9378103 117.118702,37.6866557 M47.964253,14.1236866 C41.5286363,17.3903052 36.4770925,20.4623258 32.4762397,23.2848 C40.5655925,12.8239546 54.0965998,5.80154227 69.2181618,5.31611959 C69.4897068,5.30727423 69.7596387,5.30271753 70.0298394,5.29816082 C63.6619745,7.16989278 56.1710961,9.95778969 47.964253,14.1236866 M9.36910341,20.3778928 C9.50622019,20.3497485 9.72318735,20.3194598 10.0519988,20.3090062 C12.8381582,20.2197485 20.2454221,21.6899546 28.686708,26.1230887 C24.9557871,29.0999546 22.4204708,31.7337278 20.6105292,33.9437278 C14.3714465,28.0848825 9.83825791,21.9995423 9.36910341,20.3778928 M23.157944,14.6150062 C27.1881022,14.4855423 32.2780925,14.6479753 37.7393735,15.6110474 C34.494545,18.3724082 31.7317762,21.4993773 29.5118285,24.8844701 C20.9952628,20.3602021 13.3863564,18.754367 10.0057555,18.8631918 C8.9894781,18.8956247 8.3993382,19.0870062 8.09149757,19.4831711 C7.73875791,19.9377691 7.91647202,20.5346969 7.97454501,20.7309031 C8.58323601,22.7733773 13.2909124,29.0881608 19.7066338,35.0869237 C19.3880389,35.5058722 19.0949854,35.9068619 18.8253224,36.2885526 C11.5793723,28.6491093 5.10262044,19.7228 5.08487591,18.1472536 C5.86025791,17.2329649 12.8986509,14.9444289 23.157944,14.6150062 M18.4381691,39.4889649 C21.1275401,35.2817897 26.7243248,26.528367 48.6224136,15.4129649 C70.8597993,4.12548041 87.7372628,3.04795464 90.8952506,2.94636701 C92.9643698,2.88016082 94.1478759,3.01444948 94.5648723,3.16267629 C95.6136813,3.53525361 98.2670255,5.7133567 101.067165,8.22034639 C82.0834805,9.26249072 63.5122214,15.725233 45.838674,27.445068 C35.3828467,34.3779546 27.5636946,41.6287381 22.6995438,46.5556041 C22.0653114,44.1437691 20.8896022,42.1594598 19.2471582,41.5094598 C18.9374355,41.387233 18.6075487,41.3306763 18.266101,41.341666 C18.0171399,41.3497072 17.7689854,41.3942021 17.5210998,41.4673773 C17.5740645,41.0138515 17.651764,40.6911299 17.7574246,40.535934 C17.9657883,40.2276866 18.1889392,39.8778928 18.4381691,39.4889649 M2.58209124,41.7630268 C2.58424209,41.7608825 2.79314355,41.5274186 3.93094404,41.4909649 C6.68322749,41.4025113 11.7906934,42.5422227 14.9387336,43.3251711 C13.5697165,44.9004495 12.443208,47.205068 11.8976983,49.4646557 C11.6498127,49.7519959 11.3941302,50.0532742 11.1309197,50.3671505 C7.8573236,48.3595216 4.39687226,45.2537278 3.08162652,43.0954598 C2.51622141,42.167501 2.57832725,41.7986763 2.58209124,41.7630268 M7.70084915,61.4112536 C7.20265815,61.4273361 6.57810462,61.3656866 6.43157786,60.9829237 C5.91510462,59.6424495 8.90075547,55.4307175 11.5379684,52.1622227 C11.4785511,55.1758103 12.7177105,57.4635423 15.0771946,58.6456041 C12.5268224,60.1578928 9.55622749,61.3517485 7.70084915,61.4112536 M42.8715742,202.621274 C51.2625839,212.413089 53.9471156,219.25913 50.8506959,222.969893 C50.0887567,223.882305 48.7740487,224.393996 47.0490657,224.44948 C43.3961131,224.566346 37.0317433,222.517439 31.1155572,216.357315 C26.148972,211.1868 22.8388114,204.608532 21.2764866,196.805852 C17.7767822,179.316161 26.4500912,164.331584 31.0588285,157.87313 C31.3881776,159.84913 31.7774818,161.850862 32.2560462,163.876718 C33.0222871,167.111171 33.904674,170.661913 34.9241776,174.310223 C33.0376119,183.828099 35.9619635,194.55913 42.8715742,202.621274 M120.8714,75.5070062 C121.531174,93.0052742 117.161988,100.537769 113.650723,106.589872 C111.955045,109.513934 110.490315,112.039151 109.83081,115.172285 C108.977729,119.234718 108.611277,123.933212 108.1475,129.881852 C107.515418,137.987419 106.729013,148.074882 104.334578,161.712285 C103.16801,168.357295 101.495185,177.112862 98.8894282,185.910779 C95.177865,198.447872 88.4379027,211.235047 82.7397591,211.41812 C82.363629,211.429645 81.9899185,211.385419 81.6288443,211.286243 C76.7934611,209.955151 74.9724964,199.049893 73.6435389,191.08746 C72.4871873,184.158862 71.8989294,181.098099 70.0838796,181.156532 C70.0333345,181.157872 69.983865,181.162965 69.9317068,181.170202 C68.1873662,181.432346 67.6864866,184.713975 66.7202165,192.111645 C65.6173674,200.5528 64.1072007,212.113955 59.4307117,212.624841 C59.2903686,212.640388 59.1500255,212.650305 59.0107579,212.654862 C53.5814708,212.829893 48.8087311,204.19146 43.5754404,193.73812 C38.9373978,184.473542 35.8452798,172.73548 33.6688869,163.544614 C30.6283893,150.690161 30.9157968,138.611687 31.1257737,129.792594 C31.2731071,123.631666 31.3790365,119.180037 30.3675985,116.67948 C29.5825377,114.738594 28.711174,113.460305 27.7029623,111.979377 C25.5905572,108.878944 22.9616788,105.019955 19.4149246,92.3491093 C15.6952956,79.081068 17.8007105,64.007501 21.8838333,57.650099 C22.9571083,55.9718928 24.1266338,55.0294598 25.1775937,54.9956866 C25.345629,54.9903258 25.5155462,55.0074804 25.6816995,55.0466144 C29.0593431,55.8400165 30.5603686,62.7321608 32.2982567,70.7128206 C32.5085024,71.6750887 32.7219745,72.6553155 32.9435122,73.6457278 C35.0725864,83.1847794 41.3772701,91.7696041 41.7012421,92.2051711 C41.737,92.2550268 43.3549781,94.5213155 44.4497616,96.0068 C44.5976326,96.2059546 44.827236,96.3083464 45.0587214,96.3011093 C45.2001399,96.2965526 45.3418273,96.2507175 45.4646946,96.1609237 C45.7873224,95.9242433 45.8566873,95.4715216 45.6190182,95.1498722 C45.2789148,94.687501 44.8863844,94.1487381 44.507028,93.6249856 C46.4419878,94.4744082 48.4541095,95.2174186 50.5202713,95.8473155 C50.3992859,96.1995216 50.2723856,96.5688825 50.1374197,96.9591505 C46.8159672,106.580759 39.9044745,126.601027 41.742646,142.743274 C43.9429672,162.073068 53.180337,171.612924 69.1974599,171.098553 C69.744045,171.08113 70.3064927,171.051377 70.8684027,171.010903 C76.445292,170.606697 81.5785681,167.846408 85.7146557,163.028635 C92.1196229,155.566099 95.3601496,144.090718 94.3833942,132.330944 C93.280545,119.06612 88.7637567,108.672553 85.1333881,100.32146 C84.6698796,99.2549237 84.2273418,98.2355629 83.8084635,97.2494392 C88.972927,96.2432124 93.8150316,94.6631093 98.2336873,92.5278928 C97.4741679,94.167501 96.6321095,95.6688 96.3936338,96.0290474 C96.1731715,96.3624907 96.265927,96.8111918 96.6003844,97.0315216 C96.7299732,97.1167588 96.8773066,97.1550887 97.0224891,97.150532 C97.2502105,97.1432948 97.4706727,97.0296454 97.6056387,96.825666 C98.0479075,96.156099 99.5142506,93.4579959 100.34905,91.2587175 C103.555701,84.1773361 104.68436,74.9714598 105.679129,66.8473979 C106.669058,58.7686351 107.603335,51.1380371 110.410465,50.9024289 C110.450524,50.8989443 110.491391,50.896532 110.533063,50.8954598 C113.720356,50.793068 118.15837,57.1351918 120.066982,67.9262639 C120.50468,70.3986763 120.775418,72.9490887 120.8714,75.5070062 M120.781871,64.2972536 C118.55574,55.2511299 114.332274,49.1250474 110.288135,49.4606351 C106.305833,49.7948825 105.438771,56.8738515 104.238596,66.6718309 C103.265336,74.6168412 102.163562,83.611233 99.1158054,90.4674598 C94.1691156,93.0615629 88.6363187,94.9231093 82.665017,96.0019753 C81.9071107,96.1392124 81.1379124,96.2625113 80.3601107,96.3753567 C80.2576764,96.390099 80.1560487,96.4056454 80.0530766,96.4198515 C79.7632494,96.4605938 79.4707336,96.4981196 79.1779489,96.5351093 C78.9999659,96.5576247 78.8222518,96.5801402 78.6442689,96.6015835 C78.3883175,96.6318722 78.1323662,96.6605526 77.8745328,96.6881608 C77.6519197,96.7122845 77.4287689,96.7356041 77.2034672,96.7578515 C76.9738637,96.780367 76.7445292,96.8020784 76.5135815,96.8224495 C76.2466071,96.8460371 75.9777506,96.8680165 75.7083564,96.8891918 C75.5104781,96.9044701 75.3125998,96.9202845 75.1139148,96.9344907 C74.7743491,96.9580784 74.4315572,96.9787175 74.0876898,96.9982845 C73.9519173,97.0060577 73.8161448,97.0149031 73.6803723,97.0218722 C73.1856764,97.047068 72.6872165,97.0687794 72.1828418,97.0848619 C71.6779294,97.1012124 71.1783942,97.1113979 70.682354,97.118367 C70.532601,97.1202433 70.3841922,97.1197072 70.2344392,97.1207794 C69.9075097,97.1229237 69.5813869,97.124532 69.259028,97.1223876 C69.0202835,97.1213155 68.7826144,97.1172948 68.5449453,97.1138103 C68.3250207,97.1103258 68.105365,97.1068412 67.8878601,97.1017485 C67.8593613,97.1012124 67.8322068,97.0998722 67.803708,97.099068 C67.5289367,97.092099 67.2547032,97.0840577 66.981545,97.0738722 C66.8479234,97.0690474 66.7153771,97.0639546 66.5830998,97.0583258 C66.3776934,97.0494804 66.1733625,97.0384907 65.9693005,97.0280371 C65.8074489,97.0197278 65.6458662,97.0132948 65.4842835,97.0039134 C65.4412664,97.001501 65.3985182,96.9988206 65.3557701,96.9961402 C65.25468,96.9899753 65.1549343,96.9822021 65.0546509,96.9760371 C60.7792956,96.7010268 56.6916022,96.045666 52.8359319,95.0096866 C52.4396375,94.9030062 52.0460316,94.7925732 51.6548455,94.6781196 C51.6543078,94.6778515 51.6532324,94.6775835 51.6526946,94.6775835 C48.5455207,93.7764289 45.5593321,92.6117897 42.7739793,91.2150268 C41.952354,90.0729031 36.2899684,81.9780577 34.3598479,73.3315835 C34.1391168,72.3433155 33.9259136,71.3657691 33.7167433,70.4059134 C32.7660669,66.0408619 31.9143297,62.1317485 30.7773358,59.1755216 C37.6122044,51.4604907 47.9854927,41.2792124 60.3297676,34.1407381 C77.7142944,24.0878515 97.644354,20.5542639 105.733707,19.4735216 C110.738201,24.6421608 114.27447,30.9585526 115.696182,37.9731918 C116.856298,43.6956041 118.004584,47.9188619 118.927299,51.3119959 C120.411656,56.7717278 121.31824,60.1182227 120.781871,64.2972536 M117.905645,41.3580165 C117.794607,40.8669649 117.6833,40.3651918 117.571187,39.8484082 C125.320168,38.1313361 131.563015,35.1769856 132.45992,34.0203876 C132.706192,33.7027588 132.707268,33.4151505 132.665595,33.2302021 C132.565311,32.787934 132.263923,32.3561196 129.573746,31.5495835 C127.790421,31.0151093 125.393297,30.4661608 122.823567,30.0035216 C120.825426,29.6438103 117.794607,29.1728619 114.109123,28.8319134 C112.440062,25.3958928 110.240816,22.1689443 107.573223,19.2435423 C108.463675,19.1408825 109.055697,19.0853979 109.301432,19.0639546 C115.376243,20.4644701 120.237168,22.3600577 123.86431,24.1173361 C132.130571,28.1232124 136.008556,32.2623052 136.518308,33.2671918 C135.538595,34.5221608 128.050943,39.1265732 117.905645,41.3580165 M110.669373,17.9202227 C111.004369,17.4082639 111.268117,16.7625526 111.068894,16.1431093 C110.893331,15.5965732 107.251939,11.9313773 103.427725,8.43451134 C103.371265,8.35811959 103.300825,8.29378969 103.220168,8.2444701 C99.8438686,5.16789278 96.3713187,2.26849072 95.052309,1.79995464 C94.076629,1.45310928 91.999444,1.46356289 90.8484696,1.50055258 C89.1199915,1.55576907 83.3462993,1.90127423 74.8773212,3.98717113 C72.9904866,3.84993402 71.0867141,3.80865567 69.1713808,3.87003711 C58.0401861,4.22760412 47.4536946,7.96249072 39.2059854,14.4139753 C33.1701582,13.2300371 27.5190645,13.0273979 23.111163,13.1686557 C13.7033382,13.4710062 4.45628954,15.6070268 3.71048175,17.6503052 C2.91869951,19.8209031 10.2423491,28.7166557 12.5061204,31.3911711 C14.3485937,33.5684701 16.1967129,35.6179134 18.0002019,37.4979546 C17.7111813,37.9351299 17.4511971,38.3409443 17.2140657,38.7111093 C16.9734392,39.0887794 16.7559343,39.4281196 16.5537543,39.7272536 C16.2824781,40.1287794 16.1165937,40.9564907 16.0469599,42.1096041 C12.9607567,41.3188825 7.07817762,39.9424907 3.88389416,40.0448825 C3.30477737,40.0636454 1.54322993,40.1202021 1.19882482,41.3432742 C1.01116302,42.0101608 1.22087105,42.8290268 1.84166058,43.8467794 C3.2768163,46.2020577 6.76684185,49.3794186 10.1971813,51.5031093 C9.81970681,51.9697691 9.44330779,52.4458103 9.08088929,52.9202433 C4.72191971,58.6134392 4.70793917,60.5444082 5.07627251,61.5013155 C5.326309,62.1507794 5.99280414,62.9133567 7.74736131,62.857068 C10.0764647,62.7822845 13.8530912,61.1823464 16.8121253,59.2540577 C17.2046557,59.3350062 17.5869696,59.3746763 17.9555718,59.3695835 C18.1061314,60.1184907 18.2666387,60.8687381 18.4341363,61.6179134 C15.7052433,69.4248825 14.8801229,81.5481196 18.0171399,92.7380371 C21.627882,105.636986 24.330427,109.604264 26.5022494,112.792078 C27.4639489,114.20412 28.2947153,115.423439 29.0217032,117.220656 C29.921028,119.444594 29.8121411,123.995934 29.6752932,129.758553 C29.5075268,136.794367 29.2980876,145.890078 30.739427,155.832264 C29.1063929,157.980614 26.6684027,161.535913 24.4202251,166.178924 C20.949826,173.346346 17.3396217,184.526614 19.8539672,197.089171 C21.4703321,205.165522 24.9060487,211.985563 30.067017,217.357913 C35.2088966,222.710697 41.892399,226.062016 47.0950401,225.895563 L47.0955779,225.895295 C49.2477737,225.82614 50.9321594,225.134326 51.9661813,223.895171 C55.6331144,219.501171 53.019292,212.234841 43.9749611,201.681522 C38.0958771,194.822346 35.2196509,185.962511 35.9071168,177.702821 C37.6339818,183.448285 39.7200389,189.276841 42.2768637,194.384099 C47.9314526,205.679893 52.7579635,214.30412 59.0578078,214.100676 C59.2336399,214.095047 59.4108163,214.082449 59.5887993,214.063151 C65.399056,213.428697 66.929118,201.712346 68.1588674,192.29847 C68.683944,188.281068 69.3337701,183.305955 70.1247457,182.632903 C70.8657141,183.258779 71.6107153,187.720862 72.2121472,191.324944 C73.6830608,200.137068 75.5137044,211.103707 81.2419599,212.680594 C81.7447214,212.818903 82.2644209,212.880821 82.7862713,212.863934 C89.5068759,212.647893 96.4151423,199.377171 100.282105,186.320614 C102.907488,177.45247 104.591067,168.644635 105.763819,161.961831 C108.169815,148.256614 108.959446,138.130553 109.59341,129.994161 C110.053692,124.097522 110.416917,119.440037 111.251179,115.469274 C111.862827,112.562903 113.273786,110.130965 114.907358,107.31412 C118.512185,101.100656 122.997517,93.3682021 122.321074,75.4528619 C122.225092,72.8885113 121.954892,70.331666 121.522839,67.848532 C121.644631,67.4421814 121.749217,67.0521814 121.832024,66.6838928 C123.09081,61.0944289 122.109215,57.4855216 120.327773,50.9335216 C119.708058,48.6535629 118.985103,45.9948619 118.226659,42.7593361 C122.525674,41.8064495 126.215998,40.471068 128.967743,39.2868619 C132.563967,37.7402639 137.940021,34.887233 138.011805,33.3682433 C138.023904,33.1339753 138.052672,32.5121196 136.307793,30.7449237 C132.391092,26.7795216 123.663743,21.1099134 110.669373,17.9202227" id="Fill-68" fill="#002E70"></path>
                        <path d="M42.739969,53.0655753 C40.4818437,53.1382144 38.7084665,55.0228124 38.7810578,57.2751629 C38.8541867,59.5275134 40.7450541,61.2944412 43.0034483,61.2220701 C45.2631867,61.1494309 47.0354884,59.264833 46.9623595,57.0124825 C46.8897682,54.760132 44.9994386,52.9932041 42.739969,53.0655753" id="Fill-70" fill="#002E70"></path>
                        <path d="M98.7235438,51.2680907 C96.4640742,51.3407299 94.6917725,53.2253278 94.7646326,55.4774103 C94.8374927,57.7297608 96.7275535,59.4969567 98.9870231,59.4243175 C101.245955,59.3519464 103.018794,57.4673485 102.945934,55.2147299 C102.873074,52.9626474 100.982207,51.1954515 98.7235438,51.2680907" id="Fill-72" fill="#002E70"></path>
                        <path d="M77.5327088,68.9946763 C74.0222501,68.5813567 71.4433791,66.0944701 71.4183754,66.0700784 C71.1411844,65.7964082 70.6951516,65.7915835 70.4112392,66.0580165 C67.0870981,69.1790887 61.4967659,69.2511918 61.4397684,69.2509237 C61.0426674,69.2616454 60.7160068,69.5790062 60.7186954,69.9783876 C60.7211151,70.377501 61.0464314,70.6994186 61.4470275,70.6978103 C61.6898049,70.6983464 67.154581,70.6340165 70.9075482,67.5493979 C71.9050056,68.3746969 74.2849229,70.0689856 77.3619849,70.4316454 C77.7830141,70.481233 77.7959192,70.6085526 77.8021029,70.6702021 C77.8553365,71.2231711 77.0761905,72.223233 76.5750421,72.3840577 C76.1935348,72.5065526 75.9835579,72.9137072 76.1058876,73.2940577 C76.2075153,73.6084701 76.5046017,73.8060165 76.8199703,73.7958309 C76.886109,73.7936866 76.9525165,73.7826969 77.0181175,73.7612536 C78.1056418,73.413068 79.3719557,71.8222433 79.2455932,70.5305526 C79.1641297,69.6859546 78.5231759,69.1118103 77.5327088,68.9946763" id="Fill-74" fill="#002E70"></path>
                        <path d="M62.6862675,66.5710474 C62.5289865,66.2035629 62.102849,66.0336247 61.7347845,66.1896247 C61.5801921,66.2552948 57.9043867,67.8362021 54.2283125,71.0135629 C53.925849,71.2754392 53.8927797,71.7321814 54.1557213,72.0339959 C54.30413,72.2055423 54.5165266,72.2897072 54.7273101,72.2832742 C54.8878174,72.2779134 55.0480558,72.2200165 55.1787201,72.1069031 C58.6749293,69.0850062 62.2679269,67.5357278 62.3039536,67.5201814 C62.672287,67.3633773 62.8432797,66.938532 62.6862675,66.5710474" id="Fill-76" fill="#002E70"></path>
                        <path d="M54.9705714,67.537068 C55.0657466,67.5338515 55.1625349,67.5118722 55.2544838,67.4689856 C58.4509181,65.9757278 61.1486237,65.1587381 61.1752405,65.1506969 C61.5591675,65.0351711 61.7758658,64.6317691 61.6602575,64.2490062 C61.5446493,63.8665113 61.1400203,63.6504701 60.7568999,63.7651918 C60.6431736,63.799233 57.9363269,64.618367 54.6385337,66.1588 C54.2761152,66.3282021 54.1199096,66.7589443 54.2898269,67.1208 C54.4172648,67.3907175 54.6890787,67.5461814 54.9705714,67.537068" id="Fill-78" fill="#002E70"></path>
                        <path d="M88.4174696,69.9158 C84.5440547,66.9807485 80.7733431,65.638934 80.6149866,65.5831814 C80.2375122,65.4513052 79.8234732,65.6483155 79.6903893,66.0249134 C79.5575742,66.4017794 79.7554526,66.8148309 80.1334647,66.9477794 C80.1692226,66.9609134 83.8555134,68.2764598 87.5391156,71.0678412 C87.6770389,71.1721093 87.8405036,71.2198206 88.0018175,71.2147278 C88.2120633,71.2080268 88.4182762,71.1101918 88.5564684,70.9292639 C88.798708,70.611367 88.7363333,70.1575732 88.4174696,69.9158" id="Fill-80" fill="#002E70"></path>
                        <path d="M81.1068864,64.5107216 C81.1340409,64.5166186 83.8790652,65.1593814 87.1647599,66.4441031 C87.2593973,66.4810928 87.3569922,66.4971753 87.4527051,66.4939588 C87.733929,66.4848454 87.9957951,66.3124948 88.104682,66.0348041 C88.2512088,65.6627629 88.0673109,65.2430103 87.6944071,65.0971959 C84.3041273,63.771732 81.5504995,63.1281649 81.4346224,63.1013608 C81.0453182,63.011299 80.6549387,63.2533402 80.5643341,63.642268 C80.4739983,64.0311959 80.7170445,64.4198557 81.1068864,64.5107216" id="Fill-82" fill="#002E70"></path>
                        <path d="M98.8957732,43.4608536 C98.5578207,43.2450804 98.1090993,43.3439876 97.8932075,43.6801113 C97.6775847,44.0167711 97.7765238,44.4638639 98.113401,44.6793691 C98.1548049,44.7056371 102.255941,47.3345856 104.44981,49.7574103 C104.599025,49.9217196 104.806313,50.002132 105.012257,49.9954309 C105.177335,49.9900701 105.342144,49.9286887 105.474422,49.8096784 C105.772046,49.5419052 105.795436,49.0843588 105.526849,48.7881732 C103.201778,46.219534 99.0699922,43.5720907 98.8957732,43.4608536" id="Fill-84" fill="#002E70"></path>
                        <path d="M35.7801359,6.24003093 C35.8395532,5.67928866 36.3713512,5.00972165 37.6755738,4.96790722 C37.8852819,4.96120619 38.109777,4.97139175 38.3431444,4.99819588 C39.7183451,5.15607216 40.7633901,5.78891753 41.4801614,6.40862887 C40.5120094,6.42524742 39.5691298,6.64584536 38.7504619,6.83990722 C37.8043561,7.06398969 36.9190118,7.24840206 36.3259145,7.10178351 C35.8672454,6.98840206 35.7449157,6.56650515 35.7801359,6.24003093 M35.97667,8.50605155 C36.2917697,8.58405155 36.6259583,8.61594845 36.9983245,8.6038866 C37.6742296,8.58217526 38.3598135,8.41974227 39.0859948,8.24739175 C39.842288,8.06807216 40.6243914,7.88285567 41.417249,7.85739175 C42.0124972,7.83836082 42.5507478,7.91126804 43.0621128,8.08093814 C43.3473695,8.17636082 43.6608561,8.08495876 43.852013,7.85310309 C44.0426322,7.62097938 44.0695179,7.29584536 43.9208403,7.03584536 C43.8495933,6.91093814 42.1275678,3.97642268 38.50876,3.56069072 C38.2054899,3.5261134 37.9097478,3.51297938 37.6287928,3.52209278 C35.5354765,3.58910309 34.4673099,4.85908247 34.3366456,6.08805155 C34.2143159,7.2427732 34.8891456,8.23747423 35.97667,8.50605155" id="Fill-86" fill="#002E70"></path>
                        <path d="M102.009669,32.5066247 C102.242229,33.1134701 102.230937,33.6570577 101.977406,34.0368722 C101.792433,34.3142948 101.486743,34.4861093 101.158469,34.4962948 C100.656514,34.5126454 100.237367,34.166068 100.006688,33.5458206 C99.4547258,32.0598 99.3848231,30.1588515 99.4135908,28.9033464 C100.250541,29.6479649 101.387535,30.883367 102.009669,32.5066247 M98.6457367,34.0481299 C99.0936516,35.2529753 100.07444,35.9788309 101.204981,35.9426454 C102.001334,35.9169134 102.741496,35.5041299 103.185378,34.8380474 C103.706422,34.0577794 103.770141,33.0461918 103.364974,31.9901093 C102.131998,28.7714701 99.2786248,26.9482536 99.1579083,26.8721299 C98.9465871,26.7391814 98.6806881,26.7236351 98.4561929,26.8316557 C98.231429,26.9394082 98.0773742,27.1554495 98.049682,27.4028515 C98.0316686,27.5607278 97.6254265,31.3007072 98.6457367,34.0481299" id="Fill-88" fill="#002E70"></path>
                    </g>
                </g>
            </g>
        </g>
    </g>
</svg>