
<svg width="218px" height="219px" viewBox="0 0 218 219" version="1.1" xmlns="http://www.w3.org/2000/svg" xmlns:xlink="http://www.w3.org/1999/xlink">
    <defs>
        <polygon id="path-1" points="0 0.0865627284 217.901993 0.0865627284 217.901993 217.987945 0 217.987945"></polygon>
        <polygon id="path-3" points="0.0848969477 0.177089379 164.753503 0.177089379 164.753503 217.287582 0.0848969477 217.287582"></polygon>
    </defs>
    <g id="Page-1" stroke="none" stroke-width="1" fill="none" fill-rule="evenodd">
        <g id="Home3" transform="translate(-71.000000, -44.000000)">
            <g id="Group-5" transform="translate(71.000000, 44.000000)">
                <g id="Group-4">
                    <g id="Group-3">
                        <mask id="mask-2" fill="white">
                            <use xlink:href="#path-1"></use>
                        </mask>
                        <g id="Clip-2"></g>
                        <path d="M217.901993,109.037333 C217.901993,169.209316 169.123099,217.987945 108.951116,217.987945 C48.7788675,217.987945 -2.65529842e-05,169.209316 -2.65529842e-05,109.037333 C-2.65529842e-05,48.8656161 48.7788675,0.0864565164 108.951116,0.0864565164 C169.123099,0.0864565164 217.901993,48.8656161 217.901993,109.037333" id="Fill-1" fill="#FFFFFF" mask="url(#mask-2)"></path>
                    </g>
                    <g id="Group-59" transform="translate(20.000000, 1.000000)">
                        <g id="Group-6">
                            <mask id="mask-4" fill="white">
                                <use xlink:href="#path-3"></use>
                            </mask>
                            <g id="Clip-5"></g>
                            <path d="M158.45485,87.3300785 C155.64111,87.3300785 151.970059,88.1488817 148.13851,89.0612245 C145.311792,89.734551 142.342587,90.8249637 139.197787,91.9797677 C135.855147,93.2074426 132.25428,94.529717 128.281303,95.5597131 C137.789858,88.5474189 142.271078,79.9295814 143.392707,75.5920443 C144.876383,69.8524723 143.951535,65.9428858 142.418598,59.4658609 C141.626439,56.1193672 140.640677,51.9540702 139.693317,46.3438109 C139.333124,44.2059131 138.774826,42.0709301 138.032193,39.9878841 C142.72847,24.6643399 140.455548,5.71739274 138.190837,1.71506148 C138.019746,1.41244878 137.498791,0.492686342 136.453967,0.247310366 C136.254272,0.200673031 136.038951,0.177089379 135.813036,0.177089379 C132.424842,0.177089379 120.943702,7.19812812 113.91253,14.9489351 C107.278895,12.0054834 100.084047,10.5149436 92.5046413,10.5149436 C84.9255,10.5149436 77.7306525,12.0054834 71.0970169,14.9489351 C64.0655803,7.19812812 52.5849703,0.177089379 49.1962464,0.177089379 C48.9708612,0.177089379 48.7560698,0.200673031 48.5569045,0.247310366 C47.510492,0.492686342 46.9900666,1.41244878 46.8189751,1.71506148 C44.5537343,5.71739274 42.2813427,24.6638099 46.9770891,39.9878841 C46.2344567,42.0709301 45.6761581,44.2059131 45.3157006,46.3438109 C44.3686059,51.9540702 43.3825787,56.1188372 42.5912143,59.465331 C41.058012,65.9423558 40.1326348,69.8519424 41.6165754,75.5920443 C42.3210698,78.3174135 43.8953234,81.6101154 46.287691,84.9913221 C44.1087905,83.4340061 42.1928836,82.0335612 40.5002432,80.7966119 C33.5072095,75.684789 29.9969205,73.1186757 26.520797,73.1186757 C25.3920169,73.1186757 24.3016396,73.3945249 23.1900746,73.9618575 C22.0567921,74.5403194 20.6019848,75.9232754 20.1133411,79.2268416 C18.9379478,87.1697626 23.8098178,101.646945 33.7302111,111.1864 C34.7249783,112.143525 35.6802833,113.054808 36.5953315,113.928463 C47.2715995,124.118456 52.144264,128.768675 52.6977953,140.340034 C52.8829238,144.217027 52.9409254,148.759398 52.9761501,153.503422 C48.1882368,154.180193 43.0819767,153.9743 38.011736,152.891042 C26.3134213,150.390379 21.3914952,143.652875 17.0482608,137.707674 C16.1109655,136.424618 15.22611,135.213637 14.2970249,134.072877 C12.6255722,132.021894 10.4551469,130.892264 8.18381461,130.892264 C5.87143098,130.892264 3.69491413,132.096355 2.21388684,134.195035 C-0.491530498,138.029101 -0.624483949,144.225242 1.84919181,151.195138 C4.05166372,157.398964 9.35655939,163.240025 16.7865915,167.642748 C24.2846894,172.086015 33.1234454,174.532885 41.6740474,174.532885 C45.6647697,174.532885 49.5357809,174.005565 53.2139831,172.963114 C53.4152673,180.464571 53.7849944,186.563727 54.3655401,192.005191 C55.9453555,206.808835 57.7500265,217.287661 66.6396332,217.287661 C67.1004679,217.287661 67.5856685,217.259043 68.083317,217.201541 C72.6710056,216.675811 76.4564711,209.656362 81.2502111,200.769035 C85.5682849,192.762518 90.4631966,183.687317 95.1234535,182.256663 C95.4701388,182.150139 95.8697937,182.096347 96.3128836,182.096347 C100.75676,182.096347 108.241086,187.140864 115.480428,192.019765 C123.640115,197.519261 131.347707,202.714024 137.041929,202.714819 L137.044842,202.714819 C138.720532,202.714819 140.170837,202.26355 141.355765,201.372936 C146.638678,197.402933 144.246575,189.729766 143.460773,187.2087 C141.732378,181.665747 138.33306,175.107372 135.046038,168.765224 C132.621359,164.086652 130.113253,159.248558 128.357314,154.960838 C121.378847,137.926022 119.637474,131.061854 129.132522,126.531673 C135.731463,123.383653 157.692354,112.074629 163.224754,98.7358216 C165.001351,94.4526064 165.223293,91.5496973 163.922892,89.6015286 C162.903494,88.073361 161.113919,87.3300785 158.45485,87.3300785" id="Fill-4" fill="#002E70" mask="url(#mask-4)"></path>
                        </g>
                        <path d="M54.4906806,170.226351 C50.4631445,171.602417 46.1712905,172.300122 41.6749743,172.300122 C25.1535217,172.300122 8.23241413,162.499392 3.95406742,150.445761 C2.22832103,145.586469 1.85700482,141.217134 2.83985393,137.995448 C3.12482986,137.055017 3.52501445,136.215015 4.03987801,135.485511 C5.11224559,133.965823 6.58426806,133.125291 8.18527127,133.125291 C9.77170787,133.125291 11.3271573,133.965823 12.5666437,135.485511 C13.4562665,136.579369 14.3249663,137.766766 15.2437223,139.025444 C19.5964912,144.982304 25.013947,152.397905 37.543618,155.076107 C40.8173981,155.777522 44.1083933,156.131011 47.3247014,156.131011 C49.9660257,156.131011 52.3144286,155.89544 54.3304478,155.558909 C54.3333612,156.012828 54.337069,156.470987 54.3407769,156.928351 C54.3473981,158.408556 54.3587865,159.91791 54.3691156,161.444488 C54.3940112,164.315334 54.4265875,167.258255 54.4906806,170.226351" id="Fill-7" fill="#D2F1FF"></path>
                        <path d="M161.160744,97.880848 C160.506306,99.4577728 159.56954,101.041587 158.401298,102.614802 C152.150896,111.042646 139.313738,119.198615 128.170808,124.515536 C116.445214,130.107511 119.636362,139.568795 126.290656,155.809452 C128.084733,160.189652 130.615351,165.070143 133.063601,169.793763 C134.16007,171.910462 135.261306,174.037496 136.30401,176.133261 C141.383521,186.320074 145.081852,195.777648 140.013994,199.585215 C139.214155,200.186201 138.241635,200.479539 137.044789,200.479539 L137.041081,200.479539 C132.031226,200.479539 124.25027,195.237344 116.728336,190.167389 C108.865808,184.868222 101.438954,179.862658 96.31389,179.862658 C95.6496525,179.862658 95.0275257,179.948513 94.466049,180.119958 C93.4696926,180.42734 92.4937295,180.974269 91.5328628,181.718082 C87.5196284,184.818139 83.817325,191.340212 80.2217552,197.973313 C79.9068515,198.552304 79.5964502,199.131561 79.286049,199.706843 C75.1581356,207.358811 71.2587857,214.589188 67.8282159,214.982425 C67.4169077,215.028533 67.0172528,215.053706 66.6379912,215.053706 C60.20511,215.053706 58.2714583,207.544831 56.5846445,191.769222 C55.3840907,180.484577 55.3017231,167.966162 55.2339222,156.924774 C55.1947247,150.803358 55.1584406,145.021654 54.926699,140.233907 C54.3334406,127.769285 48.9191629,122.60261 38.1374856,112.312188 C37.2219077,111.439593 36.2716348,110.531225 35.277927,109.577015 C24.8892833,99.5825807 21.4044197,85.7556709 22.3237055,79.5518455 C22.5983523,77.6855572 23.248553,76.4414533 24.2065064,75.9512313 C24.40011,75.8550418 24.5857681,75.7691867 24.7714262,75.6976408 C25.3609767,75.4652491 25.9290746,75.3544854 26.5223331,75.3544854 C29.2669478,75.3544854 32.5833684,77.775122 39.1844278,82.6023512 C42.3361132,84.9048046 46.2561212,87.7727357 51.2138018,91.1693115 C54.3546284,93.3217835 57.3206557,95.0131819 60.1047327,96.2501312 C64.0220923,98.7492033 69.078561,101.188389 75.400736,102.843749 C71.0768355,112.876871 64.4580313,131.462909 66.3840024,147.052498 C67.4309446,155.516114 70.6589061,162.495815 75.71511,167.233479 C77.9308242,169.307251 80.4611774,170.916239 83.1734807,172.006652 C85.889492,173.097329 88.7885128,173.669697 91.7367953,173.669697 C94.1988178,173.669697 96.6033684,173.272749 98.8842352,172.489719 C104.838007,170.444301 109.437349,164.562432 111.827598,155.927636 C114.083039,147.807175 114.147397,137.870243 112.010078,128.670233 C109.844685,119.348861 105.341217,110.856891 101.146298,104.438163 C108.358096,103.573253 114.31584,101.678081 119.128914,99.4219999 C120.00503,99.3470092 120.858104,99.2502897 121.699524,99.1358162 C128.728577,98.1990948 134.621434,96.042913 139.967646,94.0799052 C143.048882,92.946565 145.957437,91.8773511 148.655704,91.2334379 C152.351386,90.3542181 155.886041,89.5637683 158.455062,89.5637683 C160.309789,89.5637683 161.493128,89.9819144 162.064933,90.8436452 C162.889933,92.0776796 162.586153,94.4442594 161.160744,97.880848" id="Fill-9" fill="#B6D7F2"></path>
                        <path d="M110.970075,155.687904 C108.654778,164.029627 104.262282,169.696858 98.5908371,171.645557 C97.5009896,172.021305 96.378301,172.303779 95.2315112,172.493243 C94.0881645,172.682707 92.9188628,172.775717 91.7368483,172.775717 C87.3544165,172.775717 82.7879157,171.409455 78.7815674,168.534899 C73.1095931,164.472682 68.567988,157.400501 67.2736782,146.941814 C65.3763106,131.605815 72.0631806,112.962806 76.2975626,103.072246 C81.0039029,104.22758 86.3866637,104.949398 92.5046413,104.949398 C92.8902592,104.949398 93.2761421,104.946484 93.6556685,104.939064 C95.9246172,104.906471 98.0870971,104.771064 100.152378,104.552981 C104.373253,110.939116 108.958558,119.477723 111.141431,128.874351 C113.243526,137.931269 113.182611,147.706825 110.970075,155.687904" id="Fill-11" fill="#D2F1FF"></path>
                        <path d="M50.257252,35.7920874 C47.2279262,20.4674833 49.2031589,8.70295061 50.4129823,7.96099302 C50.5030305,7.90614115 50.6073804,7.87752279 50.7170273,7.87752279 C51.9533355,7.87752279 58.0003339,14.3670019 62.4558636,21.5443817 C64.7783114,19.8018413 67.2803258,18.2792383 69.9205907,16.9879671 C62.8857111,8.94938653 51.5348764,2.41168017 49.1962729,2.41168017 C49.1290016,2.41168017 49.0892745,2.41803981 49.0664976,2.42307452 C49.0691461,2.42307452 48.8440257,2.52933344 48.4973403,3.37490012 C46.6068587,8.00180069 44.8914414,24.8593423 48.9160642,38.6790974 C49.3204864,37.7013033 49.7688732,36.7386133 50.257252,35.7920874" id="Fill-13" fill="#B6D7F2"></path>
                        <path d="M50.833004,8.8309118 C50.0911661,10.2981329 48.2637183,20.3397341 50.9219928,34.5593514 C53.5596091,29.8701794 57.2235096,25.6222072 61.7465754,22.0862492 C57.6030361,15.3953816 52.1334053,9.5291469 50.833004,8.8309118" id="Fill-15" fill="#4070A5"></path>
                        <path d="M115.088904,16.9879936 C117.901055,18.36353 120.555356,20.0016664 123.004136,21.8870336 C124.615469,19.4086303 126.151584,17.2638428 127.056568,16.0316633 C128.054778,14.670966 133.101713,7.88125907 134.308888,7.88125907 C134.411384,7.88125907 134.510701,7.90855251 134.594923,7.96048955 C135.806335,8.70297711 137.781833,20.4669798 134.752507,35.7926439 C135.241416,36.7391698 135.689273,37.7018598 136.093695,38.6788589 C140.117788,24.8598987 138.4029,8.00182718 136.51136,3.37545659 C136.16388,2.52459022 135.937965,2.42204108 135.935846,2.42098114 C135.921014,2.4180663 135.879433,2.41170667 135.812957,2.41170667 C133.475413,2.41170667 122.124048,8.94941303 115.088904,16.9879936" id="Fill-17" fill="#B6D7F2"></path>
                        <path d="M123.711968,22.4440053 C128.029512,25.9073574 131.538742,30.0281368 134.088958,34.5609678 C136.723661,20.4701331 134.951567,10.4833839 134.197281,8.87386585 C132.959119,9.79654311 127.91139,15.993214 123.711968,22.4440053" id="Fill-19" fill="#4070A5"></path>
                        <path d="M141.228903,75.0326083 C139.285452,82.5629479 126.151399,104.055605 92.5046413,104.055605 C63.7035337,104.055605 49.9338467,88.3123243 45.3416557,79.0513686 C44.5733331,77.4924627 44.0587343,76.1158664 43.7798499,75.0326083 C42.4328355,69.8301606 43.262073,66.3294457 44.762699,59.9790836 C45.5630682,56.6037065 46.5607488,52.3986618 47.5181726,46.7171215 C50.7848018,27.3520283 70.1260859,12.7487129 92.5046413,12.7487129 C114.569087,12.7487129 133.677835,26.9439516 137.341206,45.9017631 C137.395235,46.1736376 137.445026,46.4452471 137.491375,46.7171215 C138.449328,52.3986618 139.446214,56.6037065 140.242611,59.9790836 C141.747739,66.3294457 142.577506,69.8301606 141.228903,75.0326083" id="Fill-21" fill="#B6D7F2"></path>
                        <path d="M54.3691156,161.444594 C50.8381685,162.202185 32.9267961,165.44931 19.6968684,156.639093 C10.8332167,150.739206 4.77959711,143.991896 2.83985393,137.995554 C3.12482986,137.055123 3.52501445,136.215121 4.03987801,135.485352 C5.11224559,133.965929 6.58426806,133.125397 8.18527127,133.125397 C9.77170787,133.125397 11.3271573,133.965929 12.5666437,135.485352 C13.4562665,136.579475 14.3249663,137.766872 15.2434575,139.02555 C19.5964912,144.98241 25.013947,152.397746 37.543618,155.076213 C40.8173981,155.777363 44.1083933,156.130852 47.3247014,156.130852 C49.9660257,156.130852 52.3144286,155.895546 54.3304478,155.559015 C54.3333612,156.012934 54.337069,156.470828 54.3407769,156.928457 C54.3473981,158.408662 54.3587865,159.917751 54.3691156,161.444594" id="Fill-23" fill="#B6D7F2"></path>
                        <path d="M80.2217552,197.97318 C79.9068515,198.552437 79.5964502,199.131429 79.286049,199.706976 C75.1581356,207.358944 71.2587857,214.589055 67.8282159,214.982293 C67.4169077,215.0284 67.0172528,215.053839 66.6379912,215.053839 C60.20511,215.053839 58.2714583,207.544698 56.5846445,191.769355 C55.3840907,180.48471 55.3017231,167.966295 55.2339222,156.924906 C55.1947247,150.803226 55.1584406,145.021786 54.926699,140.23404 C54.3334406,127.769152 48.9191629,122.602478 38.1374856,112.312056 C37.2219077,111.439461 36.2716348,110.531357 35.277927,109.576882 C24.8892833,99.5824482 21.4044197,85.7558034 22.3237055,79.551978 C22.5983523,77.6856897 23.248553,76.4413208 24.2065064,75.9513638 C24.3998451,75.8549093 24.5857681,75.7690542 24.7714262,75.6977733 C26.1218836,75.7976726 27.3799093,76.5163115 28.3990425,78.1722018 C33.0089783,85.6805477 33.7052624,98.3812719 49.5264583,107.852891 C65.3516268,117.325039 62.3601742,133.951514 62.6027745,149.68446 C62.8350457,164.55859 60.9519799,205.625148 80.2217552,197.97318" id="Fill-25" fill="#D2F1FF"></path>
                        <path d="M140.014074,199.585348 C139.21397,200.186334 138.241714,200.479672 137.044868,200.479672 L137.040896,200.479672 C132.03104,200.479672 124.250085,195.237476 116.728416,190.167521 C108.865888,184.868354 101.439034,179.862525 96.3139695,179.862525 C95.6497319,179.862525 95.0276051,179.948645 94.4658636,180.119825 C93.4697721,180.427208 92.493809,180.974402 91.5326774,181.717949 C91.6968828,180.73883 93.0976613,179.905453 97.3119149,179.651332 C108.057838,179.004504 122.21738,187.936349 131.46612,187.406909 C135.76539,187.160473 136.648392,181.854151 136.30409,176.133128 C141.3836,186.319941 145.081931,195.777781 140.014074,199.585348" id="Fill-27" fill="#D2F1FF"></path>
                        <path d="M161.160744,97.880848 C160.506306,99.4577728 159.56954,101.041587 158.401298,102.614802 C155.8532,98.7462885 148.352453,98.5173416 134.860856,100.004967 C124.45023,101.148641 121.709853,100.251138 121.699524,99.1358162 C128.728577,98.1990948 134.621434,96.042913 139.967646,94.0799052 C143.048882,92.946565 145.957437,91.8773511 148.655704,91.2334379 C152.351386,90.3542181 155.886041,89.5637683 158.455062,89.5637683 C160.309789,89.5637683 161.493128,89.9819144 162.064933,90.8436452 C162.889933,92.0776796 162.586153,94.4442594 161.160744,97.880848" id="Fill-29" fill="#D2F1FF"></path>
                        <path d="M137.341286,45.9018691 C133.327522,57.9054181 118.011125,90.3037915 73.3925297,87.2895888 C61.5199454,86.4885396 52.3750257,83.3066014 45.3414703,79.0514746 C44.5734125,77.4925687 44.0588138,76.1157074 43.7799294,75.0327143 C42.4329149,69.8302666 43.2621525,66.3295517 44.7627785,59.9791896 C45.5628828,56.6038125 46.5608283,52.3987678 47.518252,46.7169626 C50.7848812,27.3518693 70.1259005,12.7488189 92.5047207,12.7488189 C114.569167,12.7488189 133.677915,26.9440576 137.341286,45.9018691" id="Fill-31" fill="#D2F1FF"></path>
                        <path d="M78.7816469,168.535005 C73.1096726,164.472788 68.5680674,157.400342 67.2737576,146.94192 C65.37639,131.605921 72.06326,112.962647 76.2976421,103.072352 C81.0039823,104.227421 86.3867432,104.949504 92.5047207,104.949504 C92.8903387,104.949504 93.2762215,104.946325 93.655748,104.93917 C95.302305,111.75776 106.403388,161.923898 78.7816469,168.535005" id="Fill-33" fill="#F0FBFF"></path>
                        <path d="M69.1333315,70.7224706 C69.5962849,72.1772375 66.8898082,74.3384539 63.0895112,75.5496997 C59.28789,76.7612105 55.8308355,76.5640618 55.367882,75.1092949 C54.9043989,73.6542631 57.6103459,71.4935765 61.4119671,70.2820658 C65.2133234,69.071085 68.6698483,69.2682337 69.1333315,70.7224706" id="Fill-35" fill="#EA475A"></path>
                        <path d="M115.876481,70.7224706 C115.414057,72.1772375 118.120004,74.3384539 121.920301,75.5496997 C125.721128,76.7612105 129.178712,76.5640618 129.64193,75.1092949 C130.105413,73.6542631 127.398672,71.4935765 123.597051,70.2820658 C119.796224,69.071085 116.338904,69.2682337 115.876481,70.7224706" id="Fill-37" fill="#EA475A"></path>
                        <path d="M100.017941,104.83617 C104.198824,111.187062 108.720831,119.642729 110.879603,128.934688 C112.974017,137.950533 112.912572,147.676272 110.7101,155.617603 C108.422083,163.870292 104.087853,169.471806 98.5048676,171.390297 C96.3482143,172.131459 94.0715851,172.507738 91.7385433,172.507738 L91.7374839,172.507738 C81.267797,172.507208 69.7260072,164.592375 67.5386316,146.909671 C65.6680136,131.79308 72.2417937,113.314626 76.4637279,103.388028 C81.1353732,104.515804 86.46437,105.217484 92.5047472,105.217484 C95.1444823,105.217484 97.6441132,105.080486 100.017941,104.83617 M133.948616,33.7767716 C131.452957,29.5327742 128.115879,25.6658502 124.060269,22.3781831 C127.944522,16.4207935 132.511288,10.725209 134.077331,9.31681453 C134.824201,11.5821701 136.201409,20.9880725 133.948616,33.7767716 M135.834595,2.68026882 C137.346609,4.04255596 140.406922,22.256555 136.05124,37.8911915 C135.735542,37.1704327 135.394683,36.4586833 135.034226,35.7548836 C136.479234,28.4407716 136.713888,22.3421451 136.602123,18.1932772 C136.479234,13.6010897 135.782949,8.37452838 134.734683,7.73114515 C134.608616,7.65403456 134.461096,7.61322689 134.309073,7.61322689 C133.985429,7.61322689 133.54181,7.61322689 131.3449,10.1517818 C130.051384,11.6468264 128.450911,13.6792602 126.840108,15.8730698 C125.962933,17.0670916 124.494884,19.1172794 122.937051,21.4989633 C120.628375,19.7455585 118.144105,18.2073214 115.518937,16.8998861 C122.510911,9.0338107 133.528567,2.67973885 135.812877,2.67973885 C135.821087,2.67973885 135.828768,2.67973885 135.834595,2.68026882 M61.3803973,22.0344977 C57.1309189,25.3950356 53.6434069,29.3838527 51.060614,33.7767716 C48.780012,20.8327914 50.2194583,11.355078 50.9586477,9.23758406 C52.5525,10.410407 57.5271308,15.8974484 61.3803973,22.0344977 M49.1963523,2.67973885 C51.4801324,2.67973885 62.4991132,9.0338107 69.4908226,16.8998861 C67.0372753,18.1219963 64.7052929,19.5436401 62.5266573,21.1563379 C60.748736,18.3321293 58.8985112,15.8902938 57.646577,14.3274132 C56.7476846,13.2057323 52.1909831,7.60951711 50.7171067,7.60951711 C50.5581982,7.60951711 50.4051164,7.65138471 50.2721629,7.73220509 C49.2257504,8.37452838 48.529996,13.6016196 48.4068419,18.1932772 C48.2961356,22.3421451 48.5294663,28.4402416 49.9752689,35.7543536 C49.6142817,36.4581534 49.2739526,37.1699027 48.9582544,37.8906615 C44.6028371,22.256025 47.6636798,4.04255596 49.1746348,2.68026882 C49.1807263,2.67973885 49.1881421,2.67973885 49.1963523,2.67973885 M45.025004,60.0423355 C45.825638,56.6600688 46.8219944,52.4515793 47.7820666,46.7604996 C51.0285674,27.523659 70.2549077,13.017858 92.5047472,13.017858 C114.754322,13.017858 133.980927,27.523659 137.226368,46.7604996 C138.18697,52.4515793 139.183062,56.6605988 139.983431,60.0423355 C141.476376,66.35083 142.299522,69.8261063 140.970783,74.9652226 C139.037396,82.4423003 125.983591,103.787095 92.5047472,103.787095 C59.0245787,103.787095 45.971569,82.4423003 44.038447,74.9652226 C42.7097071,69.8255764 43.5320586,66.35083 45.025004,60.0423355 M4.25755618,135.63907 C5.27827849,134.191988 6.67270064,133.395443 8.1836557,133.395443 C9.68851926,133.395443 11.1711356,134.197817 12.3576525,135.654704 C13.2448917,136.743527 14.1112079,137.929334 15.0289045,139.184832 C19.4076284,145.179055 24.8571308,152.638378 37.4887681,155.338574 C40.7792335,156.041844 44.0882384,156.398514 47.324675,156.398514 C49.8476124,156.398514 52.104378,156.185731 54.0650441,155.873314 C54.0668981,156.225214 54.0690169,156.577643 54.0716653,156.932193 C54.0986798,161.136178 54.1270185,165.554005 54.2175963,170.037549 C50.2732223,171.361943 46.0724759,172.03315 41.6765369,172.03315 C25.25811,172.03315 8.44903291,162.309531 4.20644061,150.357124 C1.08468299,141.562012 3.201874,137.13438 4.25755618,135.63907 M126.042123,155.909882 C127.841497,160.301211 130.375028,165.190181 132.825662,169.917776 C139.19498,182.207509 145.782267,194.915917 139.853921,199.371638 C139.100429,199.93738 138.182468,200.21217 137.044948,200.21217 L137.042299,200.21217 C132.111633,200.21111 124.367492,194.991703 116.878399,189.944006 C108.979852,184.620991 101.520686,179.592903 96.3129896,179.592903 C95.6206782,179.592903 94.9741854,179.684058 94.3888724,179.863718 C88.7492095,181.595394 83.8180136,190.738431 79.0486396,199.580711 C75.1352528,206.835731 71.0891774,214.337452 67.7981822,214.715321 C67.3953491,214.761428 67.0052287,214.784747 66.6394743,214.784747 C61.0239125,214.784747 58.7374839,209.400519 56.8525642,191.739279 C55.6498917,180.469208 55.5712319,167.960068 55.501577,156.922654 C55.4626445,150.798589 55.4247713,145.013969 55.1962079,140.219863 C54.5947392,127.649247 49.1563604,122.458723 38.322508,112.117689 C37.409049,111.245889 36.4566573,110.336726 35.4629494,109.381721 C25.5912881,99.8883732 21.6429414,85.982498 22.5873876,79.5931831 C22.8517055,77.8138098 23.4529093,76.6375421 24.3274358,76.1913076 C25.0888724,75.8028398 25.7856862,75.6215901 26.5209029,75.6215901 C29.1807665,75.6215901 32.4707022,78.0265927 39.0251485,82.8175189 C42.1778933,85.1223571 46.1024037,87.9910832 51.0632624,91.3903089 C54.2067376,93.5449008 57.1788563,95.2418638 59.9698194,96.4825229 C63.8466573,98.9537716 68.8260554,101.363809 75.0335514,103.024734 C73.8412079,105.834103 72.4981661,109.243664 71.2308708,112.968291 C68.1080538,122.141006 64.6867536,135.504988 66.1195787,147.085621 C67.1744663,155.612834 70.4291774,162.646856 75.5314647,167.428508 C80.0116252,171.625868 85.7664968,173.937596 91.7374839,173.937596 L91.7385433,173.937596 C94.2294342,173.937596 96.6625883,173.535614 98.9691453,172.743309 C112.442468,168.112699 116.365389,146.22972 112.272171,128.610877 C110.138559,119.426502 105.747388,111.04927 101.604113,104.654391 C108.634226,103.763247 114.462725,101.897488 119.200317,99.6845999 C127.39364,98.9733805 134.067267,96.5315451 140.059442,94.3305809 C143.132468,93.2017454 146.034932,92.1354463 148.717837,91.4963029 C152.251433,90.654711 155.914803,89.8329929 158.454956,89.8329929 C160.214073,89.8329929 161.32246,90.2119213 161.842356,90.9912417 C162.614651,92.1473706 162.301866,94.4302152 160.9138,97.7761789 C156.789065,107.722121 141.235895,117.984454 128.056023,124.27281 C116.11246,129.971309 119.328503,139.520833 126.042123,155.909882 M158.454956,88.4028696 C155.758278,88.4028696 152.153174,89.2081586 148.386778,90.1046024 C145.621505,90.7636197 142.680108,91.844228 139.566031,92.9879026 C134.620004,94.8051687 129.201754,96.7883154 122.858391,97.7955228 C125.287572,96.4157467 127.356561,94.9774089 129.080983,93.6069072 C137.020582,87.2970878 141.193784,79.8141805 142.354876,75.3234822 C143.771545,69.8412105 142.92059,66.2435111 141.37494,59.7132243 C140.579073,56.3510965 139.589073,52.1672506 138.636681,46.5225432 C138.262717,44.30409 137.677669,42.1264444 136.899017,40.0086854 C141.429498,25.5238183 139.61238,6.86172984 137.356409,2.42773825 C137.014755,1.75653161 136.64953,1.39535725 136.208559,1.29174817 C136.088848,1.26392476 135.95616,1.2493506 135.812877,1.2493506 C132.910678,1.2493506 121.306914,8.136307 114.188343,16.2639225 C107.570068,13.2144768 100.141625,11.5874698 92.5047472,11.5874698 C84.8673395,11.5874698 77.4394262,13.2144768 70.820622,16.2639225 C63.7023154,8.136307 52.0982865,1.2493506 49.1963523,1.2493506 C49.0530698,1.2493506 48.9206461,1.26392476 48.8011998,1.29174817 C48.3594342,1.39535725 47.9952689,1.75653161 47.6533507,2.42773825 C45.3973796,6.86119987 43.5802608,25.5232883 48.1094181,40.0081555 C47.3320907,42.1264444 46.7470425,44.303825 46.3725482,46.5225432 C45.4201565,52.1672506 44.4296268,56.3505665 43.6340249,59.7126943 C42.0883748,66.2429811 41.23689,69.8412105 42.6543539,75.3234822 C43.6422352,79.1429739 46.8106059,85.1268619 52.6208307,90.7127426 C52.3708146,90.5460672 52.1231822,90.3831015 51.8710474,90.2108613 C46.9284631,86.8232949 43.013752,83.9619885 39.8681581,81.6624499 C33.0623716,76.6881542 29.6471629,74.1917318 26.5209029,74.1917318 C25.5642737,74.1917318 24.6349238,74.4291583 23.6772352,74.9172604 C22.3736557,75.5829023 21.5078692,77.1272341 21.1741613,79.3835801 C20.0382303,87.0636362 24.7993941,101.110748 34.4729494,110.412777 C35.4666573,111.369107 36.420638,112.279595 37.3351565,113.15272 C48.2248917,123.545426 53.1939607,128.28892 53.7686798,140.288229 C53.9641372,144.393375 54.0189607,149.246042 54.0552448,154.418282 C52.1075562,154.743418 49.8492014,154.968125 47.324675,154.968125 C44.1886156,154.968125 40.9797231,154.62232 37.7877809,153.940249 C25.6890169,151.353997 20.6394342,144.440542 16.1828451,138.340591 C15.2540249,137.069723 14.3776445,135.869342 13.4663042,134.751106 C12.0022271,132.954508 10.126577,131.965055 8.1836557,131.965055 C6.22378411,131.965055 4.36720305,133.003796 3.09010835,134.814172 C0.587564205,138.359405 0.504137239,144.198876 2.85995586,150.835952 C7.28820626,163.313028 24.7019302,173.463538 41.6765369,173.463538 C46.0724759,173.463538 50.2830217,172.812471 54.2507022,171.530474 C54.4114647,178.375033 54.732195,185.334065 55.4316573,191.89138 C57.1899799,208.371848 59.3159109,216.215135 66.6394743,216.215135 C67.0595225,216.215135 67.5039366,216.188372 67.9605337,216.135905 C71.9928371,215.673771 75.8461035,208.530574 80.307195,200.259602 C84.7229976,192.07157 89.7283507,182.790475 94.8086557,181.231039 C95.2573074,181.093247 95.7636958,181.023556 96.3129896,181.023556 C101.083953,181.023556 108.707323,186.161083 116.079354,191.130079 C124.099731,196.535505 131.674635,201.641498 137.042299,201.642558 L137.044948,201.642558 C138.48307,201.642558 139.717259,201.2631 140.712556,200.515312 C147.608391,195.332738 141.04388,182.667787 134.093752,169.259024 C131.659274,164.559782 129.139514,159.69996 127.364506,155.367458 C120.794699,139.327659 117.868399,130.717771 128.671264,125.563551 C142.090558,119.161517 157.955189,108.643738 162.23486,98.3249626 C163.860758,94.4023918 164.114217,91.8198494 163.031256,90.1968171 C162.22506,88.9892811 160.728672,88.4028696 158.454956,88.4028696" id="Fill-39" fill="#002E70"></path>
                        <path d="M64.9164823,67.425688 C67.1422608,67.425688 68.948256,65.6200812 68.948256,63.3918236 C68.948256,61.1643609 67.1422608,59.3582241 64.9164823,59.3582241 C62.6901742,59.3582241 60.8852384,61.1643609 60.8852384,63.3918236 C60.8852384,65.6200812 62.6901742,67.425688 64.9164823,67.425688" id="Fill-41" fill="#002E70"></path>
                        <path d="M120.093091,59.3581446 C117.866254,59.3581446 116.060788,61.1642814 116.060788,63.3920091 C116.060788,65.6200017 117.866254,67.4256085 120.093091,67.4256085 C122.319665,67.4256085 124.12513,65.6200017 124.12513,63.3920091 C124.12513,61.1642814 122.319665,59.3581446 120.093091,59.3581446" id="Fill-43" fill="#002E70"></path>
                        <path d="M67.5427103,53.0968439 C67.9352143,53.060011 68.2244278,52.711291 68.1873491,52.3180534 C68.1500056,51.9245509 67.801996,51.6346575 67.4086974,51.6730803 C60.7559928,52.3024193 57.3574695,55.7949197 57.2168355,55.9433113 C56.9440425,56.228435 56.955431,56.6794392 57.2390827,56.9521086 C57.3775979,57.085131 57.5555754,57.1508472 57.733553,57.1508472 C57.9213299,57.1508472 58.1091067,57.0771815 58.2497408,56.9314398 C58.2807279,56.8988466 61.4512175,53.672921 67.5427103,53.0968439" id="Fill-45" fill="#002E70"></path>
                        <path d="M117.601088,51.6730538 C117.20673,51.634631 116.85978,51.9245244 116.822172,52.3180269 C116.785093,52.7112645 117.074042,53.0599845 117.466811,53.0968174 C123.552477,53.6723645 126.721907,56.8919305 126.75978,56.9314133 C126.899884,57.0776849 127.087132,57.1518807 127.275968,57.1518807 C127.453681,57.1518807 127.630334,57.0861644 127.768584,56.954202 C128.054884,56.6817976 128.065213,56.2289384 127.79348,55.9432848 C127.651522,55.7948932 124.253528,52.3023928 117.601088,51.6730538" id="Fill-47" fill="#002E70"></path>
                        <path d="M87.8604342,75.0471029 C85.7178178,75.0145098 84.1634278,73.2568653 84.1411806,73.2306318 C83.8829543,72.9325238 83.4324486,72.8983408 83.1334358,73.1548461 C82.834423,73.4121464 82.7999928,73.8634156 83.0568949,74.1631135 C83.1360843,74.2558582 85.0289494,76.4263491 87.822561,76.4769612 C89.4521677,76.5061096 91.0139735,75.8208587 92.4793748,74.4352529 C93.79911,75.8017798 95.2557713,76.5098194 96.8186364,76.5413526 C96.8549205,76.5424125 96.8914695,76.5429425 96.9277536,76.5429425 C99.7716862,76.5424125 101.852593,74.2749371 101.940258,74.1771577 C102.204046,73.8835544 102.181799,73.4317553 101.889142,73.1667704 C101.597015,72.9028455 101.144391,72.9251042 100.879543,73.2187074 C100.861004,73.2377864 99.1124807,75.1541568 96.8482994,75.1112293 C95.5084358,75.0844658 94.2321356,74.3520477 93.0543587,72.9349087 C92.9227295,72.7767127 92.7296557,72.6823781 92.5233395,72.6773434 C92.3117263,72.6688639 92.119447,72.7560439 91.9796075,72.9070853 C90.6498082,74.3483379 89.2768387,75.0698916 87.8604342,75.0471029" id="Fill-49" fill="#002E70"></path>
                        <path d="M100.697646,72.0416977 C100.747967,72.3994273 101.054131,72.6580525 101.404524,72.6580525 C101.43763,72.6580525 101.471001,72.6554026 101.505166,72.6508979 L110.076426,71.4470717 C110.467871,71.3922198 110.740399,71.0305155 110.684781,70.6396628 C110.630222,70.2482802 110.270824,69.9766707 109.878585,70.0304627 L101.306266,71.2342889 C100.915616,71.2891407 100.643087,71.6508451 100.697646,72.0416977" id="Fill-51" fill="#002E70"></path>
                        <path d="M99.7308467,70.2851396 C99.8246027,70.2851396 99.9194181,70.2671206 100.011055,70.2281679 L105.971184,67.6922628 C106.334555,67.5375116 106.503792,67.1177756 106.348856,66.7544814 C106.19498,66.3906572 105.774667,66.2208019 105.411561,66.376083 L99.4503732,68.9119881 C99.0880618,69.0662093 98.9185594,69.4864752 99.0734952,69.8497695 C99.1881742,70.1221739 99.4530217,70.2851396 99.7308467,70.2851396" id="Fill-53" fill="#002E70"></path>
                        <path d="M74.9330947,71.4470452 L83.5043547,72.6508714 C83.5379904,72.6556411 83.5710963,72.658026 83.6047319,72.658026 C83.95539,72.658026 84.2618186,72.3994008 84.3113451,72.0416712 C84.3661685,71.6510835 84.0941701,71.2891142 83.7029904,71.2342624 L75.1312006,70.0304362 C74.74161,69.9755843 74.378504,70.2485187 74.3242103,70.6396363 C74.2688571,71.030489 74.5413852,71.3921933 74.9330947,71.4470452" id="Fill-55" fill="#002E70"></path>
                        <path d="M79.0387343,67.6922363 L84.9988628,70.2281414 C85.0905,70.2670941 85.1850506,70.2851131 85.2782769,70.2851131 C85.5563668,70.2851131 85.8212143,70.1221474 85.9361581,69.850008 C86.0913587,69.4864487 85.9215915,69.0664478 85.5584856,68.9122266 L79.5978274,66.3760565 C79.2347215,66.2207754 78.8146734,66.3911606 78.6600024,66.7544549 C78.5058612,67.1177491 78.6750987,67.5374851 79.0387343,67.6922363" id="Fill-57" fill="#002E70"></path>
                    </g>
                </g>
            </g>
        </g>
    </g>
</svg>