
<svg width="14px" height="14px" viewBox="0 0 14 14" version="1.1" xmlns="http://www.w3.org/2000/svg" xmlns:xlink="http://www.w3.org/1999/xlink">
    <g id="Page-1" stroke="none" stroke-width="1" fill="none" fill-rule="evenodd">
        <g id="Home2" transform="translate(-100.000000, -608.000000)" fill="#717D9B" fill-rule="nonzero">
            <g id="Group-3" transform="translate(-44.000000, 475.000000)">
                <g id="cardA-Copy-6" transform="translate(64.000000, 40.000000)">
                    <g id="Group" transform="translate(60.000000, 0.000000)">
                        <g id="refund" transform="translate(20.000000, 92.000000)">
                            <g id="exchange-funds-fill">
                                <path d="M2.24866667,2.67334159 C3.46646629,1.59292621 5.03868425,0.997443021 6.66666667,1.00000825 C10.3486667,1.00000825 13.3333333,3.98467492 13.3333333,7.66667492 C13.335502,9.02927703 12.9181582,10.3595167 12.138,11.4766749 L10.3333333,7.66667492 L12,7.66667492 C12.0000399,5.49758076 10.6863914,3.54453519 8.67735049,2.72677971 C6.66830956,1.90902423 4.36413455,2.3894791 2.84933333,3.94200825 L2.24933333,2.67400825 L2.24866667,2.67334159 Z M11.0846667,12.6600083 C9.86686704,13.7404236 8.29464908,14.3359068 6.66666667,14.3333416 C2.98466667,14.3333416 0,11.3486749 0,7.66667492 C0,6.25000825 0.442,4.93667492 1.19533333,3.85667492 L3,7.66667492 L1.33333333,7.66667492 C1.33329342,9.83576909 2.64694191,11.7888146 4.65598284,12.6065701 C6.66502378,13.4243256 8.96919878,12.9438707 10.484,11.3913416 L11.084,12.6593416 L11.0846667,12.6600083 Z M7.60933333,9.55200825 L5.724,7.66667492 L3.838,9.55200825 L2.89533333,8.60934159 L5.724,5.78134159 L7.60933333,7.66667492 L9.49533333,5.78134159 L10.438,6.72400825 L7.60933333,9.55200825 L7.60933333,9.55200825 Z" id="Shape"></path>
                            </g>
                        </g>
                    </g>
                </g>
            </g>
        </g>
    </g>
</svg>